<?xml version="1.0" encoding="UTF-8"?>
<svg id="_230901_14-M5283_LaborDay_Hero_HP_US_XL_svg.svg" data-name="230901_14-M5283_LaborDay_Hero_HP_US_XL_svg.svg" xmlns="http://www.w3.org/2000/svg" width="1440" height="800" viewBox="0 0 1440 800">
  <defs>
    <style>
      .cls-1, .cls-7 {
        fill: #fff;
      }

      .cls-1 {
        opacity: 0;
      }

      .cls-2, .cls-6 {
        fill: #f16c68;
      }

      .cls-3 {
        fill: #f7efde;
      }

      .cls-3, .cls-4, .cls-5, .cls-6, .cls-7 {
        fill-rule: evenodd;
      }

      .cls-5 {
        fill: #d4ee40;
      }
    </style>
  </defs>
  <rect id="box" class="cls-1" width="1440" height="800"/>
  <g id="PP_dot_onsale">
    <circle id="Ellipse_771_copy_3" data-name="Ellipse 771 copy 3" class="cls-2" cx="546.39" cy="348" r="115.015"/>
    <path id="_1X-" data-name="$ 1X-" class="cls-3" d="M514.636,558.182a21.1,21.1,0,0,0-9.236-3.365V552.2h-4.553v2.534c-6.654.481-10.462,4.02-10.462,9.133v0.087c0,5.462,3.633,7.866,10.637,9.483v5.287a21.117,21.117,0,0,1-8.142-3.627l-3.94,5.812a24.814,24.814,0,0,0,11.819,4.37V589.6h4.553v-4.283c6.216-.568,10.331-3.845,10.331-9.176v-0.087c0-5.419-3.546-7.866-10.462-9.439v-5.2a17.681,17.681,0,0,1,5.866,2.665Zm-6.566,18.441v0.087c0,1.267-.919,2.054-2.933,2.229v-4.807C507.413,574.744,508.07,575.443,508.07,576.623Zm-9.981-13.328v-0.088c0-1.136.832-2.01,2.977-2.141v4.72C498.7,565.13,498.089,564.475,498.089,563.295ZM549.5,601.109c17.16,0,29.417-8.259,29.417-21.106v-0.2c0-8.768-5-13.561-12.257-16.925,5.515-3.059,9.8-7.851,9.8-15.6v-0.2c0-11.318-10.929-19.781-26.965-19.781s-26.864,8.463-26.864,19.781v0.2c0,7.749,4.29,12.541,9.7,15.6-7.661,3.262-12.155,8.462-12.155,17.129v0.2C520.183,592.646,532.338,601.109,549.5,601.109Zm0-43.639c-5.312,0-8.785-3.365-8.785-7.851v-0.2c0-3.977,3.371-7.545,8.785-7.545,5.515,0,8.886,3.568,8.886,7.545v0.2C558.384,554.105,554.809,557.47,549.5,557.47Zm0,28.855c-6.64,0-10.317-3.773-10.317-8.055v-0.2c0-4.69,4.29-7.851,10.317-7.851,6.128,0,10.316,3.161,10.316,7.851v0.2C559.814,582.552,556.137,586.325,549.5,586.325Z" transform="translate(0 -175)"/>
    <path id="from" class="cls-4" d="M527.787,509.506h1.981v-6.919h2.26v-1.632h-2.292v-0.473a1.083,1.083,0,0,1,1.146-1.306,3.5,3.5,0,0,1,1.162.212v-1.664a5.3,5.3,0,0,0-1.6-.229,2.625,2.625,0,0,0-1.949.686,2.9,2.9,0,0,0-.7,2.121v0.637h-1.1v1.648h1.1v6.919Zm6.69,0h1.982v-3.28c0-2.285,1.212-3.411,2.947-3.411h0.115v-2.089a3.065,3.065,0,0,0-3.062,2.106V500.89h-1.982v8.616Zm11.243,0.2a4.514,4.514,0,0,0,4.635-4.488v-0.033a4.612,4.612,0,0,0-9.22.033v0.033A4.464,4.464,0,0,0,545.72,509.7Zm0.033-1.73a2.66,2.66,0,0,1-2.636-2.758v-0.033a2.589,2.589,0,0,1,2.6-2.741,2.667,2.667,0,0,1,2.653,2.774v0.033A2.589,2.589,0,0,1,545.753,507.972Zm7.09,1.534h1.981v-4.863a1.884,1.884,0,0,1,1.851-2.138c1.1,0,1.752.751,1.752,2.089v4.912h1.981v-4.863a1.86,1.86,0,0,1,1.851-2.138c1.113,0,1.752.735,1.752,2.105v4.9h1.981v-5.5c0-2.106-1.146-3.3-3.029-3.3a3.483,3.483,0,0,0-2.915,1.518,2.746,2.746,0,0,0-2.587-1.518,3.1,3.1,0,0,0-2.637,1.485V500.89h-1.981v8.616Z" transform="translate(0 -175)"/>
    <path id="_styles" data-name=" styles" class="cls-4" d="M513.423,456.624c3.509,0,5.875-1.648,5.875-4.811V451.76c0-2.791-2.26-3.774-5.1-4.572-1.488-.451-2.339-0.717-2.339-1.275v-0.054c0-.425.4-0.717,1.17-0.717a9.465,9.465,0,0,1,4.253,1.355l1.727-3.189a11.247,11.247,0,0,0-5.927-1.675c-3.323,0-5.768,1.7-5.768,4.758v0.053c0,2.871,2.259,3.828,5.1,4.572,1.515,0.425,2.339.664,2.339,1.249v0.053c0,0.5-.425.771-1.3,0.771a9.261,9.261,0,0,1-4.917-1.648l-1.887,3.03A11.478,11.478,0,0,0,513.423,456.624Zm13.689-.026a7.2,7.2,0,0,0,3.508-.851v-3.934a4.42,4.42,0,0,1-1.914.479,1.222,1.222,0,0,1-1.382-1.436v-4.89h3.349v-4.04h-3.349v-3.642H522.3v3.642h-1.7v4.04h1.7v5.874C522.3,455.269,524.081,456.6,527.112,456.6Zm13.025-6.007-2.87-8.665H532l5.635,14.114a1.331,1.331,0,0,1-1.2.584,4.98,4.98,0,0,1-2.206-.771l-1.542,3.536a8.933,8.933,0,0,0,4.6,1.249c2.871,0,4.226-1.3,5.476-4.678l5.263-14.034h-5.184Zm9.791,5.714h5.024V436.9h-5.024v19.4Zm15.594,0.346a7.516,7.516,0,0,0,6.22-2.924l-2.791-2.312a4.3,4.3,0,0,1-3.19,1.462,2.968,2.968,0,0,1-3.109-2.366h9.621c0.027-.346.027-0.718,0.027-1.037,0-4.226-2.286-7.867-7.23-7.867a7.213,7.213,0,0,0-7.256,7.522v0.053C557.814,453.621,561,456.651,565.522,456.651Zm-2.95-8.718c0.266-1.595,1.169-2.605,2.5-2.605a2.591,2.591,0,0,1,2.525,2.605h-5.023Zm18.27,8.691c3.508,0,5.874-1.648,5.874-4.811V451.76c0-2.791-2.259-3.774-5.1-4.572-1.489-.451-2.339-0.717-2.339-1.275v-0.054c0-.425.4-0.717,1.169-0.717A9.465,9.465,0,0,1,584.7,446.5l1.728-3.189a11.25,11.25,0,0,0-5.928-1.675c-3.322,0-5.768,1.7-5.768,4.758v0.053c0,2.871,2.26,3.828,5.1,4.572,1.515,0.425,2.339.664,2.339,1.249v0.053c0,0.5-.425.771-1.3,0.771a9.261,9.261,0,0,1-4.917-1.648l-1.887,3.03A11.481,11.481,0,0,0,580.842,456.624Z" transform="translate(0 -175)"/>
    <path class="cls-5" d="M490.676,471.627l109.849-5.757,0.785,14.98-109.849,5.756Z" transform="translate(0 -175)"/>
    <path id="_on_sale" data-name=" on sale" class="cls-4" d="M506.667,484.651a7.659,7.659,0,0,0,7.974-7.522v-0.053a7.947,7.947,0,0,0-15.868.053v0.053A7.579,7.579,0,0,0,506.667,484.651Zm0.053-4.279a3.118,3.118,0,0,1-3.056-3.243v-0.053a3.019,3.019,0,0,1,3-3.217,3.147,3.147,0,0,1,3.084,3.27v0.053A3.034,3.034,0,0,1,506.72,480.372Zm10.388,3.933h5.051v-7.788c0-1.594.9-2.445,2.126-2.445s2.047,0.851,2.047,2.445v7.788h5.023V474.9c0-3.269-1.834-5.289-4.89-5.289a5.332,5.332,0,0,0-4.306,2.339v-2.02h-5.051v14.379Zm30.025,0.319c3.508,0,5.874-1.648,5.874-4.811V479.76c0-2.791-2.26-3.774-5.1-4.572-1.488-.451-2.339-0.717-2.339-1.275v-0.054c0-.425.4-0.717,1.17-0.717a9.465,9.465,0,0,1,4.253,1.355l1.727-3.189a11.247,11.247,0,0,0-5.927-1.675c-3.322,0-5.768,1.7-5.768,4.758v0.053c0,2.871,2.259,3.828,5.1,4.572,1.515,0.425,2.339.664,2.339,1.249v0.053c0,0.5-.426.771-1.3,0.771a9.261,9.261,0,0,1-4.917-1.648l-1.887,3.03A11.481,11.481,0,0,0,547.133,484.624Zm12.093,0a5.539,5.539,0,0,0,4.253-1.834v1.515h4.97v-8.266a6.008,6.008,0,0,0-1.542-4.572c-1.142-1.143-2.9-1.754-5.475-1.754a14.453,14.453,0,0,0-5.821,1.116l1.037,3.535a10.886,10.886,0,0,1,3.987-.8c1.94,0,2.87.851,2.87,2.366v0.239a10.305,10.305,0,0,0-3.455-.558c-3.376,0-5.635,1.515-5.635,4.518v0.053C554.415,483.03,556.488,484.624,559.226,484.624Zm1.807-3.163a1.584,1.584,0,0,1-1.781-1.568V479.84c0-1.09.851-1.781,2.313-1.781a5.561,5.561,0,0,1,1.993.372V479.1A2.318,2.318,0,0,1,561.033,481.461Zm10.961,2.844h5.023V464.9h-5.023v19.4Zm15.594,0.346a7.514,7.514,0,0,0,6.219-2.924l-2.79-2.312a4.3,4.3,0,0,1-3.19,1.462,2.969,2.969,0,0,1-3.11-2.366h9.622c0.027-.346.027-0.718,0.027-1.037,0-4.226-2.286-7.867-7.23-7.867a7.212,7.212,0,0,0-7.256,7.522v0.053C579.88,481.621,583.069,484.651,587.588,484.651Zm-2.951-8.718c0.266-1.595,1.17-2.605,2.5-2.605a2.591,2.591,0,0,1,2.525,2.605h-5.024Z" transform="translate(0 -175)"/>
  </g>
  <g id="headline">
    <path id="Rectangle_2003_copy_3" data-name="Rectangle 2003 copy 3" class="cls-6" d="M0,873.921l1440-38.046V944.494L0,974.937V873.921Z" transform="translate(0 -175)"/>
    <path id="FALL_DEAL_RUSH" data-name="FALL DEAL RUSH" class="cls-3" d="M321.349,973.288l82.23-2.031V947.119l-52.3,1.291V873.155l-29.93.739v99.394Zm153.36-3.788,41.192-1.017c38.724-.956,61.4-22.815,61.4-51.5V916.7c0-28.683-22.37-48.577-60.785-47.628l-41.809,1.032V969.5Zm42.118-76.153c18.05-.446,29.929,8.632,29.929,24.535v0.284c0,16.045-11.879,25.426-29.929,25.872l-12.188.3V893.648Zm83.779,73.044,87.629-2.164V940.8l-58.008,1.432V926.47l51.837-1.28V903.465l-51.837,1.28V889.552l57.237-1.413V864.852L600.606,867v99.394ZM702.9,963.865l31.318-.773,7.714-18.082,41.809-1.032,7.714,17.7,32.09-.792-45.975-98.969-28.85.712Zm47.826-40.513,12.188-28.415,12.033,27.817Zm91.031,37.084,82.229-2.031V934.267l-52.3,1.291V860.3l-29.929.74v99.394Zm153.359-3.788,29.926-.739v-30.1l13.27-.327,21.75,29.565,34.41-.85-25.77-34.01c13.43-5.585,22.22-15.884,22.22-31.219v-0.284c0-9.8-3.24-17.243-9.56-22.908-7.26-6.5-18.67-10.189-35.18-9.781l-51.066,1.261v99.394Zm29.926-52.424v-24l19.75-.488c9.88-.244,16.2,3.576,16.2,11.527v0.284c0,7.242-6.02,11.934-16.04,12.182Zm137.32,50.14c30.7-.758,50.6-15.449,50.6-47.4V851.874l-30.24.747v55.945c0,13.915-7.87,20.641-20.05,20.942-12.04.3-19.91-6.324-19.91-20.665V853.608l-30.23.746v55.8C1112.53,941.254,1131.81,955.118,1162.36,954.364Zm118.49-3.068c26.23-.648,43.66-13.148,43.66-33.453v-0.284c0-18.6-15.43-25.6-40.11-29.963-15.12-2.751-18.82-4.647-18.82-9.191v-0.284c0-3.692,3.54-6.477,10.79-6.656,9.57-.237,20.37,2.763,30.24,9.05l14.97-19.822c-11.73-8.372-26.07-12.561-44.43-12.108-25.92.64-41.81,14.38-41.81,32.839v0.284c0,20.305,17.74,25.83,40.73,30.09,14.81,2.9,18.36,4.943,18.36,9.2v0.284c0,4.26-4.32,6.923-12.5,7.124-12.5.309-24.22-3.519-35.02-11.062l-16.66,18.728C1243.67,946.676,1261.72,951.768,1280.85,951.3Z" transform="translate(0 -175)"/>
    <path id="H" class="cls-3" d="M1440,846.267v99.394l-24.92.616v-37.77l-38.42.949v37.77l-29.93.739V848.57l29.93-.739v37.2l38.42-.949v-37.2Z" transform="translate(0 -175)"/>
    <path id="L" class="cls-3" d="M218.441,876.435l29.929-.739v75.256l52.3-1.292V973.8L252.03,975H218.441V876.435Z" transform="translate(0 -175)"/>
    <path id="A" class="cls-3" d="M167.236,975l-6.811-15.629L118.616,960.4,112.389,975H81.512L125.4,878.023l28.85-.713L199.635,975h-32.4ZM139.6,910.33L127.41,938.746l24.222-.6Z" transform="translate(0 -175)"/>
    <path id="F" class="cls-3" d="M0,975V881.83l78.962-1.95v24.138L22.5,905.413v16.9l51.066-1.261v22.86L22.5,945.171V975H0Z" transform="translate(0 -175)"/>
    <path id="white" class="cls-7" d="M0,975v-0.079l1440-38.046V975H0Z" transform="translate(0 -175)"/>
  </g>
</svg>
