<?xml version="1.0" encoding="UTF-8"?><svg id="_230905_32-M5790_FallForward_Part2_HP_Hero_US_XL_svg.svg" data-name="230905_32-M5790_FallForward_Part2_HP_Hero_US_XL_svg.svg" xmlns="http://www.w3.org/2000/svg" width="1440" height="800" viewBox="0 0 1440 800">
  <defs>
    <style>
      .cls-1 {
        fill: #999;
        opacity: 0;
      }

      .cls-2 {
        fill: #d4ee40;
      }

      .cls-3, .cls-4 {
        fill-rule: evenodd;
      }

      .cls-4 {
        fill: #fff;
      }
    </style>
  </defs>
  <g id="outlined">
    <rect id="_1440_x_800_container" data-name="1440 x 800 container" class="cls-1" width="1440" height="800"/>
    <g id="US_PP_dot_styles_TWO" data-name="US PP_dot_styles TWO">
      <circle id="Ellipse_771_copy_3" data-name="Ellipse 771 copy 3" class="cls-2" cx="820.86" cy="635.531" r="93.485"/>
      <g>
        <path id="this_week_only_this_week_only_this_week_only_" data-name="this week only      this week only      this week only   " class="cls-3" d="M865.86,770.789a3.608,3.608,0,0,0,1.845.758l1.177-1.572a2.485,2.485,0,0,1-1.15-.478,0.708,0.708,0,0,1-.129-1.142l2.208-2.95,1.624,1.215,1.254-1.674-1.624-1.215,1.321-1.765-1.958-1.465-1.322,1.764-0.824-.617-1.254,1.675,0.824,0.617-2.449,3.272C864.207,768.809,864.662,769.893,865.86,770.789Zm3.4,2.431,1.776,1.681,3.31-3.493a1.5,1.5,0,0,1,2.317-.222c0.678,0.642.665,1.45-.131,2.291l-3.31,3.493L875,778.652l3.84-4.054c1.362-1.437,1.42-3.066.076-4.338a3.055,3.055,0,0,0-2.787-.733l2.989-3.154-1.777-1.682Zm15.063,1.6,1.663,1.965,1.659-1.4-1.663-1.965Zm-7.268,6.229,1.579,1.867,6.586-5.567-1.58-1.867Zm5.2,6.958c1.06,1.535,2.589,2.22,4.164,1.132l0.027-.018c1.3-.9.979-2.377,0.624-3.6-0.266-.95-0.547-1.753-0.149-2.027l0.026-.018c0.278-.192.663-0.087,1,0.4a5.129,5.129,0,0,1,.664,2.376l1.92-.192a5.962,5.962,0,0,0-1.008-3.213c-0.987-1.429-2.6-2.036-4.043-1.04l-0.026.018c-1.377.951-1.063,2.395-.669,3.589,0.3,0.945.631,1.734,0.2,2.036l-0.027.018c-0.318.219-.712,0.1-1.115-0.481a4.881,4.881,0,0,1-.7-2.822l-1.918.054A6.036,6.036,0,0,0,882.253,788.005Zm6.62,11.251,0.806,2.034,5.544-.381-4.31,3.491,0.813,2.048,9.068-.7-0.9-2.258-5.4.618,4.3-3.47-0.777-1.959-5.49.429,4.351-3.213-0.914-2.3Zm4.9,15.493a4.31,4.31,0,0,0,2.323,3.1l0.912-1.631a2.824,2.824,0,0,1-1.31-1.855,2,2,0,0,1,1.2-2.418l1.278,5.862c0.224-.032.448-0.064,0.636-0.105,2.39-.521,4.295-2.286,3.681-5.1a4.294,4.294,0,0,0-5.3-3.209l-0.031.007A4.313,4.313,0,0,0,893.776,814.749Zm4.614-3.162a1.922,1.922,0,0,1,2.19,1.432,1.85,1.85,0,0,1-1.405,2.167ZM895.239,824.9a4.311,4.311,0,0,0,1.88,3.386l1.125-1.492a2.823,2.823,0,0,1-1.045-2.015,2,2,0,0,1,1.519-2.232l0.469,5.98c0.225,0,.451,0,0.644-0.018,2.438-.191,4.564-1.681,4.339-4.55a4.293,4.293,0,0,0-4.808-3.9l-0.032,0A4.312,4.312,0,0,0,895.239,824.9Zm5-2.5a1.92,1.92,0,0,1,1.974,1.716,1.849,1.849,0,0,1-1.686,1.955Zm-4.51,8.7-0.133,2.442,2.619,0.142,0.868,0.917-3.654,2.008-0.154,2.827,5.406-3.105,3.212,3.461,0.159-2.923-2.977-3.029,6.25,0.339,0.133-2.441Zm-2.948,19.387a4.524,4.524,0,0,0,3.089,5.7l0.031,0.009a4.669,4.669,0,0,0,2.441-9l-0.031-.009A4.484,4.484,0,0,0,892.781,850.48Zm2.024,0.589a2.292,2.292,0,0,1,2.9-1.556l0.031,0.008a2.209,2.209,0,0,1,1.673,2.778,2.293,2.293,0,0,1-2.9,1.557l-0.031-.009A2.209,2.209,0,0,1,894.805,851.069Zm-4.026,6.469-0.993,2.234,4.4,1.952a1.5,1.5,0,0,1,.982,2.108c-0.378.852-1.144,1.111-2.2,0.64l-4.4-1.952-0.993,2.234,5.1,2.266c1.808,0.8,3.363.314,4.114-1.376a3.048,3.048,0,0,0-.239-2.869l1.118,0.5,0.992-2.233Zm-4.79,9.963-1.236,2.11,10.137,5.934,1.236-2.11Zm-2.95,9.561,5.886,1.921,1.544-2.08-8.967-2.442a0.817,0.817,0,0,1,.056-1.02,2.239,2.239,0,0,1,.894-0.639l-0.932-1.713a4.047,4.047,0,0,0-1.773,1.39c-0.872,1.176-.764,2.137.252,3.711l5.121,7.922,1.515-2.041ZM849.42,899.886a3.6,3.6,0,0,0-1.577,1.221l0.777,1.8a2.492,2.492,0,0,1,.987-0.757,0.709,0.709,0,0,1,1.056.456l1.457,3.384-1.862.8,0.827,1.921,1.862-.8,0.872,2.025,2.247-.967-0.872-2.025,0.946-.407-0.827-1.92-0.946.407-1.617-3.753C851.961,899.44,850.794,899.294,849.42,899.886Zm-3.787,1.729-2.344.7,1.375,4.608a1.5,1.5,0,0,1-.964,2.117c-0.9.266-1.589-.148-1.92-1.257l-1.374-4.609-2.344.7,1.6,5.348c0.565,1.9,1.948,2.759,3.721,2.231A3.053,3.053,0,0,0,845.4,909.4l1.241,4.162,2.343-.7Zm-8.926,12.25-2.535.455,0.385,2.138,2.534-.456Zm-1.758-9.411-2.408.433,1.527,8.488,2.407-.433Zm-8.636,1.011c-1.86.148-3.219,1.127-3.067,3.035l0,0.032c0.125,1.571,1.566,2.038,2.8,2.343,0.956,0.246,1.791.4,1.83,0.886l0,0.033c0.027,0.336-.257.617-0.851,0.664a5.112,5.112,0,0,1-2.389-.616l-0.8,1.757a5.97,5.97,0,0,0,3.287.739c1.732-.138,3.065-1.228,2.926-2.976l0-.032c-0.132-1.667-1.54-2.12-2.771-2.377-0.969-.213-1.817-0.323-1.86-0.852l0-.032c-0.031-.385.27-0.667,0.975-0.723a4.88,4.88,0,0,1,2.793.81l0.914-1.686A6.041,6.041,0,0,0,826.313,905.465Zm-13.044.107-2.166-.314-2.431,4.994-0.88-5.474-2.181-.316-3.9,8.208,2.4,0.349,2.153-4.985,0.867,5.455,2.086,0.3,2.362-4.971,0.619,5.371,2.452,0.355ZM797.378,902.1a4.32,4.32,0,0,0-3.846.469l0.96,1.6a2.828,2.828,0,0,1,2.262-.212,2,2,0,0,1,1.5,2.247l-5.722-1.813c-0.083.21-.167,0.42-0.225,0.6-0.739,2.331-.157,4.861,2.589,5.731a4.3,4.3,0,0,0,5.422-2.991l0.01-.03A4.313,4.313,0,0,0,797.378,902.1Zm0.444,5.575a1.923,1.923,0,0,1-2.334,1.184,1.85,1.85,0,0,1-1.179-2.3Zm-9.98-9.369a4.315,4.315,0,0,0-3.873-.062l0.732,1.72a2.823,2.823,0,0,1,2.268.1,2,2,0,0,1,1.177,2.43l-5.418-2.578c-0.111.2-.223,0.393-0.3,0.568-1.051,2.206-.821,4.792,1.779,6.029a4.293,4.293,0,0,0,5.778-2.22l0.014-.029A4.31,4.31,0,0,0,787.842,898.306Zm-0.324,5.581a1.921,1.921,0,0,1-2.473.853,1.849,1.849,0,0,1-.853-2.436Zm-5.286-8.248-2.046-1.339-1.436,2.194-1.23.292,0.094-4.168-2.37-1.55-0.022,6.233-4.606,1.043,2.451,1.6,4.114-1.057-3.427,5.236,2.047,1.338Zm-15.311-12.251a4.527,4.527,0,0,0-6.485-.173l-0.023.022a4.48,4.48,0,0,0,.1,6.438,4.527,4.527,0,0,0,6.484.173l0.023-.022A4.48,4.48,0,0,0,766.921,883.388Zm-1.522,1.458a2.29,2.29,0,0,1-.1,3.287l-0.023.022a2.21,2.21,0,0,1-3.243.062,2.292,2.292,0,0,1,.1-3.287l0.023-.022A2.21,2.21,0,0,1,765.4,884.846Zm-3.6-6.722-1.444-1.974-3.885,2.839a1.5,1.5,0,0,1-2.318-.2c-0.551-.754-0.393-1.547.542-2.23l3.885-2.839-1.443-1.974-4.509,3.294c-1.6,1.168-1.95,2.76-.857,4.253a3.051,3.051,0,0,0,2.608,1.223l-0.988.721,1.444,1.975Zm-6.258-9.11-1.216-2.122-10.2,5.841,1.217,2.122Zm-6.825-7.313-4.6,4.146,1.035,2.374,6.586-6.556a0.817,0.817,0,0,1,.857.556,2.212,2.212,0,0,1,.108,1.094l1.951,0.044a4.039,4.039,0,0,0-.323-2.228c-0.585-1.342-1.473-1.727-3.344-1.631l-9.424.493,1.016,2.33Zm-2.981-40.516a3.6,3.6,0,0,0-.275-1.975l-1.95-.225a2.486,2.486,0,0,1,.165,1.234,0.709,0.709,0,0,1-.922.687l-3.661-.423,0.232-2.014-2.078-.24-0.233,2.014-2.19-.253-0.281,2.43,2.191,0.252-0.119,1.023,2.079,0.24,0.118-1.023,4.061,0.469C744.855,823.61,745.563,822.672,745.735,821.185Zm0.391-4.164,0.563-2.38-4.684-1.107a1.5,1.5,0,0,1-1.356-1.891c0.215-.908.921-1.3,2.048-1.037l4.684,1.107,0.563-2.38-5.436-1.285c-1.926-.455-3.365.313-3.791,2.114a3.05,3.05,0,0,0,.766,2.776l-4.229-1-0.563,2.38ZM739.945,803.2l0.867-2.423-2.046-.732-0.867,2.424Zm9.038,3.164,0.824-2.3-8.122-2.9-0.824,2.3Zm3.427-7.985c0.8-1.686.628-3.352-1.1-4.173l-0.029-.013c-1.425-.676-2.549.341-3.43,1.259-0.69.706-1.246,1.351-1.682,1.144l-0.029-.014c-0.306-.144-0.407-0.531-0.152-1.069a5.107,5.107,0,0,1,1.727-1.764l-1.127-1.567a5.968,5.968,0,0,0-2.281,2.481c-0.745,1.57-.464,3.27,1.121,4.021l0.029,0.014c1.513,0.717,2.608-.278,3.445-1.216,0.669-.734,1.187-1.415,1.667-1.187l0.029,0.014c0.349,0.165.444,0.566,0.141,1.206a4.878,4.878,0,0,1-2.1,2.016l1.006,1.634A6.039,6.039,0,0,0,752.41,798.376Zm6.445-11.363,1.357-1.716-3.1-4.606,5.18,1.982,1.367-1.728-5.149-7.493-1.507,1.9,3.236,4.362-5.157-1.985-1.307,1.652,3.119,4.536-4.96-2.157-1.536,1.943Zm10.949-12a4.31,4.31,0,0,0,1.514-3.565l-1.869.031a2.826,2.826,0,0,1-.946,2.064,2,2,0,0,1-2.7.176l4.429-4.05c-0.14-.177-0.281-0.354-0.411-0.5-1.651-1.8-4.135-2.564-6.26-.62a4.292,4.292,0,0,0-.116,6.189l0.022,0.023A4.315,4.315,0,0,0,769.8,775.012Zm-5.053-2.4A1.921,1.921,0,0,1,764.89,770a1.851,1.851,0,0,1,2.58.126Zm13.105-3.976a4.314,4.314,0,0,0,1.984-3.327l-1.857-.223A2.826,2.826,0,0,1,776.766,767a2,2,0,0,1-2.7-.19l4.938-3.413c-0.115-.195-0.23-0.389-0.34-0.548-1.391-2.012-3.749-3.1-6.119-1.463a4.292,4.292,0,0,0-.954,6.117l0.018,0.027A4.317,4.317,0,0,0,777.856,768.636Zm-4.682-3.062a1.921,1.921,0,0,1,.492-2.57,1.851,1.851,0,0,1,2.54.474Zm9.773-.466,2.18-1.109-1.19-2.336,0.359-1.211,3.569,2.154,2.524-1.284-5.4-3.119,1.385-4.512-2.609,1.327-1.13,4.094-2.838-5.576-2.18,1.109Zm18.254-7.161a4.526,4.526,0,0,0,3.39-5.53l-0.009-.031a4.671,4.671,0,0,0-9.02,2.4l0.008,0.031A4.483,4.483,0,0,0,801.2,757.947Zm-0.5-2.046a2.292,2.292,0,0,1-2.8-1.728l-0.008-.031a2.208,2.208,0,0,1,1.567-2.839,2.291,2.291,0,0,1,2.8,1.727l0.009,0.031A2.21,2.21,0,0,1,800.7,755.9Zm7.649,0.243,2.432-.259-0.511-4.782A1.5,1.5,0,0,1,811.6,749.2c0.928-.1,1.535.435,1.658,1.586l0.511,4.782,2.432-.26-0.593-5.549c-0.21-1.967-1.412-3.068-3.252-2.872a3.054,3.054,0,0,0-2.365,1.644l-0.129-1.215-2.432.259Zm11-.863,2.445,0.04,0.193-11.739-2.445-.04Zm9.756-2.244-1.3-6.05-2.574-.286,2.4,8.972a0.816,0.816,0,0,1-.909.465,2.228,2.228,0,0,1-1-.451l-1.011,1.667a4.039,4.039,0,0,0,2.093.831c1.455,0.162,2.231-.415,3.08-2.084l4.27-8.409-2.526-.281Z" transform="translate(0 -194)"/>
        <path id="arrow" class="cls-3" d="M848.4,762.385l7.388-3.476-3.593-7.476-1.629.766,2.259,4.7-8.011-2.857-0.6,1.692,8.01,2.858-4.608,2.167Z" transform="translate(0 -194)"/>
        <path id="arrow-2" data-name="arrow" class="cls-3" d="M747.129,841.655L740.8,836.5l-5.194,6.469L737,844.1l3.265-4.066,0.881,8.456,1.786-.191-0.882-8.456L746,843.063Z" transform="translate(0 -194)"/>
        <path id="arrow-3" data-name="arrow" class="cls-3" d="M865.642,889.2l-0.682,8.133,8.274,0.628,0.15-1.793-5.2-.4,6.481-5.5L873.5,888.9l-6.48,5.5,0.426-5.072Z" transform="translate(0 -194)"/>
      </g>
      <path id="_1X-" data-name="$ 1X-" class="cls-3" d="M785.386,856.945a13.513,13.513,0,0,0-5.875-2.117v-1.649h-2.9v1.594c-4.232.3-6.654,2.53-6.654,5.746v0.055c0,3.437,2.311,4.949,6.765,5.967v3.326a13.5,13.5,0,0,1-5.178-2.282l-2.506,3.657a15.874,15.874,0,0,0,7.517,2.749v2.722h2.9v-2.694c3.954-.357,6.571-2.42,6.571-5.774V868.19c0-3.409-2.255-4.949-6.654-5.938V858.98a11.3,11.3,0,0,1,3.73,1.677Zm-4.177,11.6V868.6c0,0.8-.584,1.292-1.865,1.4V866.98C780.792,867.365,781.209,867.805,781.209,868.548Zm-6.348-8.386v-0.055c0-.715.529-1.265,1.893-1.347v2.969C775.251,861.317,774.861,860.9,774.861,860.162Zm32.763,23.921c10.135,0,17.541-5.838,17.541-14.948v-0.128c0-7.7-5.262-11.227-11.759-12.638l10.85-9.238v-8.853H791.447V848.35h17.346l-10.394,9.3,1.754,6.479h5.327c4.808,0,7.406,1.732,7.406,4.619v0.128c0,2.759-2.209,4.555-5.782,4.555-4.223,0-7.6-1.86-10.849-5.132l-7.991,7.827C792.747,880.939,798.854,884.083,807.624,884.083Zm38.958,0c11.045,0,18.776-6.031,18.776-15.974V867.98c0-9.751-7.406-14.242-15.592-14.242a16.232,16.232,0,0,0-7.277,1.6l0.39-6.8h20.465V838.278H832.939l-1.3,22.71,7.471,4.17a13.9,13.9,0,0,1,7.276-2.246c3.963,0,6.692,1.925,6.692,5.2v0.128c0,3.208-2.469,5.26-6.627,5.26-3.9,0-7.406-1.8-11.044-4.875l-7.211,8.34A25.524,25.524,0,0,0,846.582,884.083Z" transform="translate(0 -194)"/>
      <path class="cls-4" d="M763,791.826l112-3.451V800.75L763,804.2V791.826Z" transform="translate(0 -194)"/>
      <path class="cls-4" d="M780.379,815.625l77.242-2.767v12.375L780.379,828V815.625Z" transform="translate(0 -194)"/>
      <path id="wide-leg_cargo" data-name="wide-leg cargo" class="cls-3" d="M772.081,801.984h3.726l2.07-6.488,2.024,6.488h3.772l3.841-12.538h-4.209l-1.679,6.3-1.932-6.349h-3.588l-1.932,6.3-1.633-6.257h-4.255Zm16.969-13.665h4.531V785.1H789.05v3.221Zm0.092,13.573h4.347V789.446h-4.347v12.446Zm12.262,0.276a4.566,4.566,0,0,0,3.772-1.933v1.657h4.37V785.1h-4.37v5.867a4.67,4.67,0,0,0-3.8-1.8c-2.944,0-5.5,2.462-5.5,6.51v0.047C795.884,799.706,798.437,802.168,801.4,802.168Zm1.311-3.658a2.649,2.649,0,0,1-2.553-2.83v-0.046a2.566,2.566,0,1,1,5.106,0v0.046A2.635,2.635,0,0,1,802.715,798.51Zm15.5,3.681a6.5,6.5,0,0,0,5.382-2.531l-2.415-2a3.718,3.718,0,0,1-2.76,1.265,2.569,2.569,0,0,1-2.691-2.047h8.326c0.023-.3.023-0.621,0.023-0.9,0-3.658-1.978-6.81-6.256-6.81a6.243,6.243,0,0,0-6.28,6.51v0.047C811.544,799.568,814.3,802.191,818.215,802.191Zm-2.553-7.546c0.23-1.38,1.012-2.254,2.162-2.254a2.242,2.242,0,0,1,2.185,2.254h-4.347Zm10.4,1.956h7.544v-3.819h-7.544V796.6Zm9.776,5.291h4.348V785.1H835.84v16.794Zm13.39,0.3a6.5,6.5,0,0,0,5.382-2.531l-2.415-2a3.718,3.718,0,0,1-2.76,1.265,2.569,2.569,0,0,1-2.691-2.047h8.326c0.023-.3.023-0.621,0.023-0.9,0-3.658-1.978-6.81-6.256-6.81a6.242,6.242,0,0,0-6.279,6.51v0.047C842.56,799.568,845.32,802.191,849.23,802.191Zm-2.553-7.546c0.23-1.38,1.012-2.254,2.162-2.254a2.242,2.242,0,0,1,2.185,2.254h-4.347Zm16.773,10.973c2.6,0,4.347-.6,5.474-1.748,1.1-1.081,1.61-2.691,1.61-4.969v-9.455h-4.37v1.472a4.927,4.927,0,0,0-3.91-1.748,5.439,5.439,0,0,0-5.382,5.8v0.046a5.438,5.438,0,0,0,5.543,5.774,4.809,4.809,0,0,0,3.818-1.863v0.483c0,1.979-1.081,3.06-3.243,3.06a8.587,8.587,0,0,1-4.347-1.173l-1.4,2.9A13.3,13.3,0,0,0,863.45,805.618Zm0.253-8.189a2.39,2.39,0,0,1-2.553-2.393V794.99a2.556,2.556,0,0,1,5.106-.023v0.046A2.408,2.408,0,0,1,863.7,797.429ZM792.436,826.2a6.162,6.162,0,0,0,5.521-2.853l-2.921-2.116a2.92,2.92,0,0,1-2.392,1.288,2.582,2.582,0,0,1-2.485-2.83v-0.046a2.6,2.6,0,0,1,2.461-2.783,2.793,2.793,0,0,1,2.324,1.311l2.944-2.208a5.915,5.915,0,0,0-5.314-2.761,6.445,6.445,0,0,0-6.647,6.487v0.046A6.407,6.407,0,0,0,792.436,826.2Zm11.131-.023a4.791,4.791,0,0,0,3.681-1.588V825.9h4.3v-7.155a5.2,5.2,0,0,0-1.334-3.956c-0.989-.99-2.507-1.519-4.738-1.519a12.5,12.5,0,0,0-5.038.966l0.9,3.06a9.413,9.413,0,0,1,3.45-.69c1.68,0,2.485.736,2.485,2.047v0.207a8.931,8.931,0,0,0-2.991-.483c-2.921,0-4.876,1.311-4.876,3.911v0.046C799.4,824.8,801.2,826.176,803.567,826.176Zm1.564-2.738a1.371,1.371,0,0,1-1.541-1.357v-0.046c0-.943.736-1.541,2-1.541a4.8,4.8,0,0,1,1.725.322v0.575A2.007,2.007,0,0,1,805.131,823.438Zm9.161,2.462h4.37v-3.888c0-2.853,1.288-4.164,3.565-4.164H822.6v-4.6a3.807,3.807,0,0,0-3.933,2.715v-2.508h-4.37V825.9Zm16.224,3.727c2.6,0,4.347-.6,5.474-1.749,1.1-1.081,1.61-2.691,1.61-4.969v-9.455h-4.37v1.472a4.927,4.927,0,0,0-3.91-1.748,5.439,5.439,0,0,0-5.382,5.8v0.046a5.438,5.438,0,0,0,5.543,5.774,4.809,4.809,0,0,0,3.818-1.863v0.483c0,1.979-1.081,3.06-3.243,3.06a8.587,8.587,0,0,1-4.347-1.173l-1.4,2.9A13.3,13.3,0,0,0,830.516,829.627Zm0.253-8.19a2.39,2.39,0,0,1-2.553-2.393V819a2.556,2.556,0,0,1,5.106-.023v0.046A2.408,2.408,0,0,1,830.769,821.437Zm15.66,4.762a6.628,6.628,0,0,0,6.9-6.511v-0.046a6.877,6.877,0,0,0-13.732.046v0.046A6.559,6.559,0,0,0,846.429,826.2Zm0.046-3.7a2.7,2.7,0,0,1-2.645-2.807v-0.046a2.613,2.613,0,0,1,2.6-2.783,2.722,2.722,0,0,1,2.669,2.829v0.046A2.625,2.625,0,0,1,846.475,822.5Z" transform="translate(0 -194)"/>
    </g>
  </g>
</svg>
