<?xml version="1.0" encoding="UTF-8"?>
<svg id="_230901_14-M5283_LaborDay_CatNav_Activewear_HP_US_XL_svg.svg" data-name="230901_14-M5283_LaborDay_CatNav_Activewear_HP_US_XL_svg.svg" xmlns="http://www.w3.org/2000/svg" width="460" height="575" viewBox="0 0 460 575">
  <defs>
    <style>
      .cls-1 {
        fill: #e4e3e1;
        opacity: 0;
      }

      .cls-2 {
        fill: #f16c68;
      }

      .cls-3 {
        fill: #f7efde;
      }

      .cls-3, .cls-4, .cls-5 {
        fill-rule: evenodd;
      }

      .cls-5 {
        fill: #d4ee40;
      }
    </style>
  </defs>
  <rect id="Box" class="cls-1" width="460" height="575"/>
  <rect class="cls-2" y="485" width="460" height="90"/>
  <path id="_1X-" data-name="$ 1X-" class="cls-3" d="M255.423,2395.18a20.982,20.982,0,0,0-9.236-3.36v-2.62h-4.552v2.53c-6.653.48-10.461,4.02-10.461,9.13v0.09c0,5.46,3.633,7.87,10.636,9.48v5.29a21,21,0,0,1-8.141-3.63l-3.939,5.82a24.826,24.826,0,0,0,11.818,4.36v4.33H246.1v-4.28c6.215-.57,10.329-3.85,10.329-9.18v-0.09c0-5.41-3.545-7.86-10.461-9.43v-5.2a17.594,17.594,0,0,1,5.865,2.66Zm-6.566,18.44v0.09c0,1.27-.919,2.05-2.933,2.23v-4.81C248.2,2411.74,248.857,2412.44,248.857,2413.62Zm-9.979-13.33v-0.08c0-1.14.831-2.01,2.976-2.14v4.72C239.49,2402.13,238.878,2401.47,238.878,2400.29Zm30.7,36.6H289.08V2365h-14.4l-20.936,5.92,3.779,15.29,12.051-2.85v53.53Zm65.588,1.42c20.425,0,33.191-16.92,33.191-37.11V2401c0-20.19-12.664-36.91-32.987-36.91s-33.192,16.92-33.192,37.11v0.2C302.174,2421.59,314.838,2438.31,335.162,2438.31Zm0.2-17.53c-7.966,0-13.277-8.16-13.277-19.58V2401c0-11.42,5.209-19.48,13.073-19.48,7.966,0,13.276,8.26,13.276,19.68v0.2C348.438,2412.72,343.332,2420.78,335.366,2420.78Z" transform="translate(0 -1871)"/>
  <path id="from" class="cls-4" d="M128.4,2436.51h1.981v-6.92h2.259v-1.64h-2.292v-0.47a1.077,1.077,0,0,1,1.146-1.3,3.5,3.5,0,0,1,1.163.21v-1.67a5.365,5.365,0,0,0-1.605-.22,2.608,2.608,0,0,0-1.948.68,2.916,2.916,0,0,0-.7,2.12v0.64h-1.1v1.65h1.1v6.92Zm6.689,0h1.982v-3.28c0-2.29,1.211-3.41,2.947-3.41h0.114v-2.09a3.053,3.053,0,0,0-3.061,2.1v-1.94h-1.982v8.62Zm11.242,0.19a4.513,4.513,0,0,0,4.633-4.49v-0.03a4.611,4.611,0,0,0-9.218.03v0.04A4.465,4.465,0,0,0,146.33,2436.7Zm0.033-1.73a2.656,2.656,0,0,1-2.636-2.76v-0.03a2.589,2.589,0,0,1,2.6-2.74,2.668,2.668,0,0,1,2.652,2.77v0.04A2.587,2.587,0,0,1,146.363,2434.97Zm7.088,1.54h1.981v-4.87a1.879,1.879,0,0,1,1.851-2.13c1.1,0,1.751.75,1.751,2.08v4.92h1.982v-4.87a1.856,1.856,0,0,1,1.85-2.13c1.113,0,1.752.73,1.752,2.1v4.9H166.6v-5.5c0-2.11-1.146-3.3-3.029-3.3a3.47,3.47,0,0,0-2.915,1.52,2.735,2.735,0,0,0-2.587-1.52,3.1,3.1,0,0,0-2.636,1.49v-1.31h-1.981v8.62Z" transform="translate(0 -1871)"/>
  <path id="_activewear" data-name=" activewear" class="cls-4" d="M76.893,2383.62a5.535,5.535,0,0,0,4.252-1.83v1.52h4.97v-8.27a6,6,0,0,0-1.541-4.57c-1.143-1.15-2.9-1.76-5.475-1.76a14.346,14.346,0,0,0-5.82,1.12l1.037,3.53a11.047,11.047,0,0,1,3.986-.79c1.94,0,2.87.85,2.87,2.36v0.24a10.275,10.275,0,0,0-3.455-.56c-3.375,0-5.634,1.52-5.634,4.52v0.06C72.083,2382.03,74.156,2383.62,76.893,2383.62Zm1.807-3.16a1.582,1.582,0,0,1-1.781-1.57v-0.05c0-1.09.85-1.78,2.312-1.78a5.61,5.61,0,0,1,1.993.37v0.67A2.318,2.318,0,0,1,78.7,2380.46Zm17.789,3.19a7.13,7.13,0,0,0,6.378-3.29l-3.375-2.45a3.375,3.375,0,0,1-2.764,1.49,2.985,2.985,0,0,1-2.87-3.27v-0.05a3.01,3.01,0,0,1,2.844-3.22,3.221,3.221,0,0,1,2.684,1.51l3.4-2.55a6.843,6.843,0,0,0-6.139-3.19,7.449,7.449,0,0,0-7.68,7.5v0.05A7.4,7.4,0,0,0,96.49,2383.65Zm14.481-.05a7.255,7.255,0,0,0,3.508-.85v-3.94a4.324,4.324,0,0,1-1.913.48,1.218,1.218,0,0,1-1.382-1.43v-4.89h3.348v-4.04h-3.348v-3.65h-5.023v3.65h-1.7v4.04h1.7v5.87C106.161,2382.27,107.941,2383.6,110.971,2383.6Zm5.955-15.98h5.235v-3.72h-5.235v3.72Zm0.106,15.69h5.023v-14.38h-5.023v14.38Zm13.094,0.1h4.6l5.741-14.48h-5.209l-2.791,8.39-2.764-8.39h-5.315Zm18.228,0.24a7.522,7.522,0,0,0,6.219-2.92l-2.79-2.32a4.308,4.308,0,0,1-3.19,1.47,2.97,2.97,0,0,1-3.109-2.37H155.1c0.026-.34.026-0.72,0.026-1.04,0-4.22-2.285-7.86-7.229-7.86a7.21,7.21,0,0,0-7.255,7.52v0.05C140.647,2380.62,143.836,2383.65,148.354,2383.65Zm-2.95-8.72c0.266-1.59,1.17-2.6,2.5-2.6a2.59,2.59,0,0,1,2.525,2.6H145.4Zm14.907,8.48h4.305l2.392-7.49,2.339,7.49h4.358l4.438-14.48H173.28l-1.94,7.28-2.232-7.34h-4.146l-2.233,7.29-1.887-7.23h-4.916Zm26.659,0.24a7.522,7.522,0,0,0,6.219-2.92l-2.791-2.32a4.3,4.3,0,0,1-3.189,1.47,2.969,2.969,0,0,1-3.109-2.37h9.62c0.027-.34.027-0.72,0.027-1.04,0-4.22-2.285-7.86-7.229-7.86a7.21,7.21,0,0,0-7.255,7.52v0.05C179.263,2380.62,182.452,2383.65,186.97,2383.65Zm-2.95-8.72c0.266-1.59,1.169-2.6,2.5-2.6a2.59,2.59,0,0,1,2.525,2.6H184.02Zm16.673,8.69a5.534,5.534,0,0,0,4.252-1.83v1.52h4.97v-8.27a6,6,0,0,0-1.541-4.57c-1.143-1.15-2.9-1.76-5.475-1.76a14.342,14.342,0,0,0-5.82,1.12l1.036,3.53a11.049,11.049,0,0,1,3.987-.79c1.94,0,2.87.85,2.87,2.36v0.24a10.276,10.276,0,0,0-3.455-.56c-3.375,0-5.634,1.52-5.634,4.52v0.06C195.883,2382.03,197.956,2383.62,200.693,2383.62Zm1.807-3.16a1.582,1.582,0,0,1-1.78-1.57v-0.05c0-1.09.85-1.78,2.312-1.78a5.611,5.611,0,0,1,1.993.37v0.67A2.318,2.318,0,0,1,202.5,2380.46Zm10.826,2.85h5.05v-4.5c0-3.29,1.488-4.81,4.119-4.81h0.425v-5.31c-2.391-.11-3.72,1.17-4.544,3.13v-2.89h-5.05v14.38Z" transform="translate(0 -1871)"/>
  <path class="cls-5" d="M92.293,2398.63l109.834-5.76,0.785,14.98-109.834,5.76Z" transform="translate(0 -1871)"/>
  <path id="_on_sale" data-name=" on sale" class="cls-4" d="M107.282,2411.65a7.659,7.659,0,0,0,7.973-7.52v-0.05a7.946,7.946,0,0,0-15.866.05v0.05A7.575,7.575,0,0,0,107.282,2411.65Zm0.053-4.28a3.117,3.117,0,0,1-3.056-3.24v-0.05a3.019,3.019,0,0,1,3-3.22,3.147,3.147,0,0,1,3.083,3.27v0.05A3.032,3.032,0,0,1,107.335,2407.37Zm10.387,3.94h5.049v-7.79c0-1.6.9-2.45,2.126-2.45s2.047,0.85,2.047,2.45v7.79h5.023v-9.41c0-3.27-1.834-5.29-4.89-5.29a5.323,5.323,0,0,0-4.306,2.34v-2.02h-5.049v14.38Zm30.02,0.31c3.508,0,5.873-1.64,5.873-4.81v-0.05c0-2.79-2.259-3.77-5.1-4.57-1.489-.45-2.339-0.72-2.339-1.28v-0.05c0-.43.4-0.72,1.169-0.72a9.472,9.472,0,0,1,4.252,1.36l1.728-3.19a11.188,11.188,0,0,0-5.927-1.68c-3.322,0-5.767,1.7-5.767,4.76v0.05c0,2.87,2.259,3.83,5.1,4.58,1.515,0.42,2.339.66,2.339,1.25v0.05c0,0.5-.426.77-1.3,0.77a9.262,9.262,0,0,1-4.916-1.65l-1.887,3.03A11.445,11.445,0,0,0,147.742,2411.62Zm12.092,0a5.536,5.536,0,0,0,4.252-1.83v1.52h4.969v-8.27a6,6,0,0,0-1.541-4.57c-1.143-1.15-2.9-1.76-5.475-1.76a14.345,14.345,0,0,0-5.82,1.12l1.037,3.53a11.044,11.044,0,0,1,3.986-.79c1.94,0,2.87.85,2.87,2.36v0.24a10.276,10.276,0,0,0-3.455-.56c-3.375,0-5.634,1.52-5.634,4.52v0.06C155.023,2410.03,157.1,2411.62,159.834,2411.62Zm1.807-3.16a1.582,1.582,0,0,1-1.781-1.57v-0.05c0-1.09.851-1.78,2.312-1.78a5.606,5.606,0,0,1,1.993.37v0.67A2.317,2.317,0,0,1,161.641,2408.46Zm10.959,2.85h5.023V2391.9H172.6v19.41Zm15.591,0.34a7.522,7.522,0,0,0,6.219-2.92l-2.79-2.32a4.307,4.307,0,0,1-3.189,1.47,2.971,2.971,0,0,1-3.11-2.37h9.621c0.026-.34.026-0.72,0.026-1.04,0-4.22-2.285-7.86-7.228-7.86a7.211,7.211,0,0,0-7.256,7.52v0.05C180.484,2408.62,183.673,2411.65,188.191,2411.65Zm-2.949-8.72c0.265-1.59,1.169-2.6,2.5-2.6a2.589,2.589,0,0,1,2.524,2.6h-5.022Z" transform="translate(0 -1871)"/>
</svg>
