<svg width="396" height="104" viewBox="0 0 396 104" fill="none" xmlns="http://www.w3.org/2000/svg">
<path d="M0 4C0 1.79086 1.79086 0 4 0H392C394.209 0 396 1.79086 396 4V100C396 102.209 394.209 104 392 104H4C1.79087 104 0 102.209 0 100V4Z" fill="#003764"/>
<path d="M36.32 66H51.872C59.36 66 64.304 62.784 64.304 56.784V56.688C64.304 52.128 61.568 49.872 57.632 48.528C60.128 47.232 62.432 45.072 62.432 41.04V40.944C62.432 38.688 61.664 36.864 60.176 35.376C58.256 33.456 55.232 32.4 51.392 32.4H36.32V66ZM56.528 42C56.528 45.072 53.984 46.56 50.192 46.56H42.128V37.632H50.624C54.416 37.632 56.528 39.264 56.528 41.904V42ZM58.4 56.064V56.16C58.4 59.184 55.952 60.768 51.92 60.768H42.128V51.552H51.488C56.144 51.552 58.4 53.232 58.4 56.064ZM70.9606 66H96.1126V60.72H76.8646V51.696H93.7126V46.416H76.8646V37.68H95.8726V32.4H70.9606V66ZM114.877 66.48C121.933 66.48 126.877 62.736 126.877 56.448V56.352C126.877 50.784 123.229 48.24 116.125 46.512C109.645 44.976 108.109 43.824 108.109 41.232V41.136C108.109 38.928 110.125 37.152 113.581 37.152C116.653 37.152 119.677 38.352 122.701 40.608L125.869 36.144C122.461 33.408 118.573 31.92 113.677 31.92C107.005 31.92 102.205 35.904 102.205 41.664V41.76C102.205 47.952 106.237 50.064 113.389 51.792C119.629 53.232 120.973 54.528 120.973 56.928V57.024C120.973 59.52 118.669 61.248 115.021 61.248C110.893 61.248 107.629 59.664 104.413 56.88L100.861 61.104C104.893 64.704 109.741 66.48 114.877 66.48ZM141.373 66H147.325V37.872H157.981V32.4H130.717V37.872H141.373V66ZM190.393 66.48C197.449 66.48 202.393 62.736 202.393 56.448V56.352C202.393 50.784 198.745 48.24 191.641 46.512C185.161 44.976 183.625 43.824 183.625 41.232V41.136C183.625 38.928 185.641 37.152 189.097 37.152C192.169 37.152 195.193 38.352 198.217 40.608L201.385 36.144C197.977 33.408 194.089 31.92 189.193 31.92C182.521 31.92 177.721 35.904 177.721 41.664V41.76C177.721 47.952 181.753 50.064 188.905 51.792C195.145 53.232 196.489 54.528 196.489 56.928V57.024C196.489 59.52 194.185 61.248 190.537 61.248C186.409 61.248 183.145 59.664 179.929 56.88L176.377 61.104C180.409 64.704 185.257 66.48 190.393 66.48ZM209.336 66H234.488V60.72H215.24V51.696H232.088V46.416H215.24V37.68H234.248V32.4H209.336V66ZM241.492 66H265.06V60.624H247.396V32.4H241.492V66ZM271.211 66H294.779V60.624H277.115V32.4H271.211V66ZM300.929 66H326.081V60.72H306.833V51.696H323.681V46.416H306.833V37.68H325.841V32.4H300.929V66ZM333.086 66H338.99V54.288H346.382L354.638 66H361.646L352.574 53.28C357.23 51.936 360.542 48.624 360.542 43.104V43.008C360.542 40.08 359.534 37.584 357.758 35.76C355.598 33.648 352.286 32.4 348.062 32.4H333.086V66ZM338.99 49.056V37.776H347.582C351.95 37.776 354.542 39.744 354.542 43.344V43.44C354.542 46.848 351.854 49.056 347.63 49.056H338.99Z" fill="white"/>
</svg>
