<?xml version="1.0" encoding="UTF-8"?>
<svg id="_231002_72_M9048_Cozy_BI_HP_Primary_XL_US_HP.svg" data-name="231002_72_M9048_Cozy_BI_HP_Primary_XL_US_HP.svg" xmlns="http://www.w3.org/2000/svg" width="1440" height="800" viewBox="0 0 1440 800">
  <defs>
    <style>
      .cls-1 {
        fill: #fff;
        fill-opacity: 0;
      }

      .cls-2 {
        fill: #fff8e3;
      }

      .cls-2, .cls-3 {
        fill-rule: evenodd;
      }

      .cls-3 {
        fill: red;
      }
    </style>
  </defs>
  <rect id="bounding_box_copy" data-name="bounding box copy" class="cls-1" width="1440" height="800"/>
  <g id="PP3_copy_2" data-name="PP3 copy 2">
    <path id="_styles_" data-name=" styles " class="cls-2" d="M157.158,671.326c2.905,0,4.864-1.364,4.864-3.983V667.3c0-2.31-1.87-3.124-4.226-3.784-1.232-.374-1.937-0.594-1.937-1.056v-0.044c0-.352.331-0.594,0.969-0.594a7.838,7.838,0,0,1,3.522,1.122l1.43-2.641a9.313,9.313,0,0,0-4.908-1.386c-2.751,0-4.776,1.408-4.776,3.939V662.9c0,2.376,1.871,3.168,4.226,3.784,1.254,0.352,1.937.55,1.937,1.034v0.044c0,0.418-.352.638-1.079,0.638a7.675,7.675,0,0,1-4.072-1.364l-1.563,2.509A9.515,9.515,0,0,0,157.158,671.326Zm12.23-.022a5.962,5.962,0,0,0,2.905-.7v-3.257a3.667,3.667,0,0,1-1.585.4,1.011,1.011,0,0,1-1.144-1.188V662.5h2.773v-3.345h-2.773v-3.014H165.4v3.014H164V662.5H165.4v4.862C165.4,670.2,166.878,671.3,169.388,671.3Zm11.37-4.973-2.377-7.173h-4.358l4.666,11.684a1.1,1.1,0,0,1-.99.484,4.13,4.13,0,0,1-1.827-.638l-1.277,2.926a7.4,7.4,0,0,0,3.808,1.034c2.377,0,3.5-1.078,4.534-3.872l4.358-11.618H183Zm9.468,4.731h4.16V655h-4.16v16.062Zm14.033,0.286a6.223,6.223,0,0,0,5.151-2.421l-2.311-1.914a3.56,3.56,0,0,1-2.641,1.21,2.459,2.459,0,0,1-2.576-1.958h7.968c0.022-.286.022-0.594,0.022-0.858,0-3.5-1.893-6.513-5.987-6.513a5.973,5.973,0,0,0-6.009,6.227v0.044A6,6,0,0,0,204.259,671.348Zm-2.443-7.217c0.22-1.32.969-2.156,2.069-2.156a2.145,2.145,0,0,1,2.091,2.156h-4.16Zm15.488,7.2c2.905,0,4.864-1.364,4.864-3.983V667.3c0-2.31-1.871-3.124-4.226-3.784-1.232-.374-1.937-0.594-1.937-1.056v-0.044c0-.352.33-0.594,0.969-0.594a7.831,7.831,0,0,1,3.521,1.122l1.431-2.641a9.318,9.318,0,0,0-4.908-1.386c-2.752,0-4.777,1.408-4.777,3.939V662.9c0,2.376,1.871,3.168,4.227,3.784,1.254,0.352,1.936.55,1.936,1.034v0.044c0,0.418-.352.638-1.078,0.638a7.673,7.673,0,0,1-4.072-1.364l-1.563,2.509A9.515,9.515,0,0,0,217.3,671.326Z"/>
    <path id="from" class="cls-2" d="M168.368,692.683H169.6V685.5h2.609v-1.056h-2.625v-0.672c0-1.184.48-1.76,1.44-1.76a4.117,4.117,0,0,1,1.2.208v-1.072a3.766,3.766,0,0,0-1.361-.207,2.439,2.439,0,0,0-1.776.639,2.919,2.919,0,0,0-.72,2.128v0.72h-1.136V685.5h1.136v7.183Zm6.507,0h1.232v-3.3c0-2.495,1.472-3.791,3.281-3.791h0.095v-1.328a3.542,3.542,0,0,0-3.376,2.3v-2.16h-1.232v8.271Zm10.747,0.192a4.3,4.3,0,0,0,4.337-4.32v-0.032a4.313,4.313,0,0,0-8.626.032v0.032A4.239,4.239,0,0,0,185.622,692.875Zm0.032-1.1a3.1,3.1,0,0,1-3.057-3.216v-0.032a3.054,3.054,0,0,1,3.025-3.2,3.131,3.131,0,0,1,3.073,3.231v0.032A3.053,3.053,0,0,1,185.654,691.771Zm7.169,0.912h1.232v-4.719a2.4,2.4,0,0,1,2.305-2.608c1.312,0,2.128.912,2.128,2.464v4.863h1.232v-4.767a2.306,2.306,0,0,1,2.273-2.56c1.344,0,2.144.9,2.144,2.5v4.831h1.233v-5.119c0-2.048-1.169-3.328-3.073-3.328a3.3,3.3,0,0,0-2.913,1.648,2.81,2.81,0,0,0-2.656-1.648,3.024,3.024,0,0,0-2.673,1.568v-1.392h-1.232v8.271Z"/>
    <path id="_10" data-name="$10" class="cls-2" d="M140.974,722.058a13.76,13.76,0,0,0-6.6-2.661v-2.1h-3.055v2.03c-4.39.385-7.375,2.941-7.375,6.687v0.07c0,3.955,2.388,5.846,7.515,7.176v6.9a12.908,12.908,0,0,1-6.181-3.08l-2.247,3.22a16.208,16.208,0,0,0,8.288,3.466v3.5h3.055v-3.431c4.46-.42,7.48-2.976,7.48-6.791v-0.07c0-3.746-2.283-5.847-7.621-7.177v-6.721a12.973,12.973,0,0,1,4.776,2.275Zm-3.266,15.158v0.07c0,1.68-1.229,2.765-3.477,3.01v-6.371C136.935,734.73,137.708,735.675,137.708,737.216ZM128.086,725.8v-0.035c0-1.541,1.124-2.7,3.371-2.906v6.2C128.753,728.219,128.086,727.274,128.086,725.8Zm27.271,30.028h17.305V702.956H159.345l-15.725,4.275,3.16,12.975,8.577-1.875v37.5Zm47.758,1.125c15.951,0,25.431-12.9,25.431-27.376v-0.15c0-14.475-9.33-27.225-25.28-27.225s-25.431,12.9-25.431,27.375v0.15C177.835,744.207,187.165,756.957,203.115,756.957Zm0.151-15.225c-4.74,0-7.975-4.95-7.975-12.151v-0.15c0-7.2,3.084-12,7.824-12s7.976,4.95,7.976,12.15v0.15C211.091,736.931,208.006,741.732,203.266,741.732Z"/>
  </g>
  <g id="XL_headline_desktop_" data-name="XL_headline (desktop)">
    <g id="astrick">
      <path id="large_astrick" data-name="large astrick" class="cls-3" d="M1029.02,425.155l-18.25,61.832-43.3-17.956,34.144-54.867-66.134,14.452-5.7-43.948,68.612,1.8-48-46.64L987.1,314.445l33.671,56.543,18.25-61.833,43.31,17.955-34.15,54.868,66.13-14.457,5.7,43.953-68.61-1.8,48,46.644L1062.69,481.7Z"/>
      <path id="me" class="cls-2" d="M997.735,411.159l8.645-.947-1.3-10.3a2.369,2.369,0,1,1,4.69-.513l1.3,10.3,8.64-.948-1.3-10.3a2.369,2.369,0,1,1,4.69-.513l1.3,10.3,8.65-.948-1.63-12.833c-0.55-4.385-3.63-6.794-8.09-6.305a9.031,9.031,0,0,0-6.64,3.98,6.761,6.761,0,0,0-6.54-2.536,7.978,7.978,0,0,0-5.9,3.755l-0.33-2.6-8.645.947Zm48.315-4.825a11.416,11.416,0,0,0,8.95-5.281l-5.09-2.949a5.847,5.847,0,0,1-3.97,2.46,3.993,3.993,0,0,1-4.26-2.173l13.37-1.465c-0.01-.432-0.08-0.931-0.13-1.359-0.75-5.917-4.78-10.354-12.17-9.544-6.25.684-10.15,5.593-9.41,11.4V397.5C1034.11,403.558,1039.23,407.082,1046.05,406.334Zm-4.93-11.5c0.04-1.812.92-3.065,2.37-3.224a3,3,0,0,1,3.27,2.606Z"/>
    </g>
    <path id="COZY" class="cls-2" d="M682.231,426.2c22.5-2.471,33.885-14.126,39.933-27.52l-26.619-10.419c-2.959,6.69-7.2,11.562-15.733,12.5-9.958,1.093-17.916-5.867-19.3-16.854l-0.03-.241c-1.278-10.142,4.4-19.211,14.614-20.333,8.278-.909,13.6,2.792,17.718,8.459L716.056,355.4c-9.258-12.08-23.849-19.659-43.766-17.472-27.03,2.968-45.738,24.118-42.559,49.351l0.031,0.242C633.063,413.724,657.14,428.952,682.231,426.2Zm92.607-10.169c27.936-3.067,47.07-25,43.982-49.507l-0.031-.242c-3.088-24.509-26.861-41.483-54.8-38.416s-47.069,25-43.981,49.507l0.03,0.242C723.129,402.121,746.9,419.1,774.838,416.028Zm-2.89-25.021c-11.64,1.279-20.152-6.967-21.415-16.988l-0.03-.242c-1.248-9.9,4.869-19.63,16.38-20.893,11.639-1.278,20.152,6.967,21.415,16.988l0.03,0.242C789.576,380.014,783.459,389.744,771.948,391.007Zm53.358,17.643,84.453-9.273L906.838,376.2l-41,4.5,35.765-46.035-2.5-19.8-82.9,9.1,2.92,23.181,39.446-4.332L822.811,388.85Zm118.718-13.035,30.263-3.323-3.818-30.3,27.313-57.959-33.5,3.678-12.15,29.488-19.018-26.065-33.885,3.721,41.019,50.823Z"/>
    <path id="Ellipse_1_copy" data-name="Ellipse 1 copy" class="cls-2" d="M770.973,348.1c15.71,0,28.448,11.609,28.448,25.925s-12.738,25.926-28.448,25.926-28.449-11.607-28.449-25.926S755.261,348.1,770.973,348.1Z"/>
  </g>
</svg>
