<?xml version="1.0" encoding="UTF-8"?>
<svg id="_230901_14-M5283_LaborDay_CatNav_Dresses_HP_US_XL_svg.svg" data-name="230901_14-M5283_LaborDay_CatNav_Dresses_HP_US_XL_svg.svg" xmlns="http://www.w3.org/2000/svg" width="460" height="575" viewBox="0 0 460 575">
  <defs>
    <style>
      .cls-1 {
        fill: #e5e1de;
        opacity: 0;
      }

      .cls-2 {
        fill: #f16c68;
      }

      .cls-3 {
        fill: #f7efde;
      }

      .cls-3, .cls-4, .cls-5 {
        fill-rule: evenodd;
      }

      .cls-5 {
        fill: #d4ee40;
      }
    </style>
  </defs>
  <rect id="Box" class="cls-1" width="460" height="575"/>
  <rect class="cls-2" y="485" width="460" height="90"/>
  <path id="_1X-" data-name="$ 1X-" class="cls-3" d="M1238.31,1694.28a21.008,21.008,0,0,0-9.23-3.37v-2.63h-4.56v2.54c-6.65.48-10.46,4.03-10.46,9.15v0.09c0,5.48,3.64,7.89,10.64,9.51v5.3a20.96,20.96,0,0,1-8.14-3.64l-3.94,5.83a24.821,24.821,0,0,0,11.82,4.38v4.34h4.55v-4.3c6.21-.57,10.33-3.85,10.33-9.2v-0.08c0-5.44-3.55-7.89-10.46-9.47v-5.21a17.562,17.562,0,0,1,5.86,2.67Zm-6.56,18.49v0.08c0,1.27-.92,2.06-2.94,2.24v-4.82C1231.09,1710.88,1231.75,1711.58,1231.75,1712.77Zm-9.98-13.36v-0.09c0-1.14.83-2.02,2.97-2.15v4.73C1222.38,1701.24,1221.77,1700.59,1221.77,1699.41Zm30.69,36.68h19.51v-72.06h-14.4l-20.94,5.92,3.78,15.34,12.05-2.87v53.67Zm59.36,1.43c17.36,0,29.52-9.61,29.52-25.45v-0.21c0-15.53-11.65-22.69-24.52-22.69a25.074,25.074,0,0,0-11.43,2.56l0.61-10.84h32.17v-16.35h-47.8l-2.04,36.18,11.75,6.64a21.642,21.642,0,0,1,11.43-3.57c6.23,0,10.52,3.06,10.52,8.28v0.2c0,5.11-3.88,8.38-10.41,8.38-6.13,0-11.65-2.86-17.37-7.77l-11.33,13.29C1290.37,1733.12,1299.16,1737.52,1311.82,1737.52Z" transform="translate(-980 -1170)"/>
  <path id="from" class="cls-4" d="M1109.4,1735.71h1.98v-6.94h2.26v-1.64h-2.29v-0.47a1.083,1.083,0,0,1,1.14-1.31,3.559,3.559,0,0,1,1.17.21v-1.67a5.431,5.431,0,0,0-1.61-.22,2.617,2.617,0,0,0-1.95.68,2.92,2.92,0,0,0-.7,2.13v0.64h-1.1v1.65h1.1v6.94Zm6.69,0h1.98v-3.29c0-2.29,1.21-3.42,2.95-3.42h0.11v-2.09a3.05,3.05,0,0,0-3.06,2.11v-1.95h-1.98v8.64Zm11.24,0.19a4.512,4.512,0,0,0,4.63-4.5v-0.03a4.606,4.606,0,0,0-9.21.03v0.04A4.46,4.46,0,0,0,1127.33,1735.9Zm0.03-1.73a2.659,2.659,0,0,1-2.63-2.77v-0.03a2.594,2.594,0,0,1,2.6-2.75,2.666,2.666,0,0,1,2.65,2.78v0.04A2.587,2.587,0,0,1,1127.36,1734.17Zm7.09,1.54h1.98v-4.88a1.891,1.891,0,0,1,1.85-2.14c1.1,0,1.75.75,1.75,2.09v4.93h1.99v-4.88a1.861,1.861,0,0,1,1.85-2.14c1.11,0,1.75.73,1.75,2.11v4.91h1.98v-5.52c0-2.11-1.15-3.3-3.03-3.3a3.45,3.45,0,0,0-2.91,1.52,2.747,2.747,0,0,0-2.59-1.52,3.1,3.1,0,0,0-2.64,1.49v-1.31h-1.98v8.64Z" transform="translate(-980 -1170)"/>
  <path id="_dresses" data-name=" dresses" class="cls-4" d="M1083.22,1682.69a5.255,5.255,0,0,0,4.35-2.24v1.92h5.05v-19.45h-5.05v6.8a5.362,5.362,0,0,0-4.38-2.08c-3.4,0-6.35,2.85-6.35,7.54v0.05C1076.84,1679.84,1079.79,1682.69,1083.22,1682.69Zm1.51-4.23a3.067,3.067,0,0,1-2.95-3.28v-0.05a2.967,2.967,0,1,1,5.9,0v0.05A3.049,3.049,0,0,1,1084.73,1678.46Zm11.44,3.91h5.05v-4.5c0-3.3,1.48-4.82,4.12-4.82h0.42v-5.33c-2.39-.11-3.72,1.17-4.54,3.14v-2.9h-5.05v14.41Zm18.79,0.35a7.52,7.52,0,0,0,6.22-2.93l-2.79-2.32a4.317,4.317,0,0,1-3.19,1.47,2.969,2.969,0,0,1-3.11-2.38h9.62c0.02-.34.02-0.71,0.02-1.03,0-4.24-2.28-7.89-7.22-7.89a7.221,7.221,0,0,0-7.26,7.54v0.05C1107.25,1679.68,1110.44,1682.72,1114.96,1682.72Zm-2.95-8.74c0.26-1.6,1.17-2.61,2.5-2.61,1.38,0,2.33,1.01,2.52,2.61h-5.02Zm18.27,8.71c3.5,0,5.87-1.65,5.87-4.82v-0.05c0-2.8-2.26-3.79-5.1-4.59-1.49-.45-2.34-0.72-2.34-1.28v-0.05c0-.42.4-0.72,1.17-0.72a9.484,9.484,0,0,1,4.25,1.36l1.73-3.2a11.294,11.294,0,0,0-5.93-1.68c-3.32,0-5.77,1.71-5.77,4.77v0.06c0,2.88,2.26,3.83,5.11,4.58,1.51,0.43,2.33.67,2.33,1.25v0.06c0,0.5-.42.77-1.3,0.77a9.274,9.274,0,0,1-4.92-1.65l-1.88,3.03A11.448,11.448,0,0,0,1130.28,1682.69Zm13.68,0c3.51,0,5.87-1.65,5.87-4.82v-0.05c0-2.8-2.25-3.79-5.1-4.59-1.49-.45-2.34-0.72-2.34-1.28v-0.05c0-.42.4-0.72,1.17-0.72a9.41,9.41,0,0,1,4.25,1.36l1.73-3.2a11.259,11.259,0,0,0-5.92-1.68c-3.33,0-5.77,1.71-5.77,4.77v0.06c0,2.88,2.26,3.83,5.1,4.58,1.52,0.43,2.34.67,2.34,1.25v0.06c0,0.5-.43.77-1.3,0.77a9.274,9.274,0,0,1-4.92-1.65l-1.89,3.03A11.47,11.47,0,0,0,1143.96,1682.69Zm15.12,0.03a7.493,7.493,0,0,0,6.22-2.93l-2.79-2.32a4.317,4.317,0,0,1-3.19,1.47,2.969,2.969,0,0,1-3.11-2.38h9.62c0.03-.34.03-0.71,0.03-1.03,0-4.24-2.29-7.89-7.23-7.89a7.219,7.219,0,0,0-7.25,7.54v0.05C1151.38,1679.68,1154.56,1682.72,1159.08,1682.72Zm-2.95-8.74c0.27-1.6,1.17-2.61,2.5-2.61a2.6,2.6,0,0,1,2.53,2.61h-5.03Zm18.27,8.71c3.51,0,5.87-1.65,5.87-4.82v-0.05c0-2.8-2.26-3.79-5.1-4.59-1.49-.45-2.34-0.72-2.34-1.28v-0.05c0-.42.4-0.72,1.17-0.72a9.447,9.447,0,0,1,4.25,1.36l1.73-3.2a11.294,11.294,0,0,0-5.93-1.68c-3.32,0-5.76,1.71-5.76,4.77v0.06c0,2.88,2.26,3.83,5.1,4.58,1.52,0.43,2.34.67,2.34,1.25v0.06c0,0.5-.43.77-1.3,0.77a9.274,9.274,0,0,1-4.92-1.65l-1.89,3.03A11.47,11.47,0,0,0,1174.4,1682.69Z" transform="translate(-980 -1170)"/>
  <path class="cls-5" d="M1073.29,1697.73l109.84-5.77,0.78,15.02-109.83,5.77Z" transform="translate(-980 -1170)"/>
  <path id="_on_sale" data-name=" on sale" class="cls-4" d="M1088.28,1710.79a7.662,7.662,0,0,0,7.97-7.54v-0.05a7.941,7.941,0,0,0-15.86.05v0.05A7.583,7.583,0,0,0,1088.28,1710.79Zm0.06-4.29a3.117,3.117,0,0,1-3.06-3.25v-0.05a3.028,3.028,0,0,1,3-3.23,3.147,3.147,0,0,1,3.08,3.28v0.05A3.035,3.035,0,0,1,1088.34,1706.5Zm10.38,3.94h5.05v-7.8c0-1.6.9-2.46,2.13-2.46s2.04,0.86,2.04,2.46v7.8h5.03v-9.43c0-3.28-1.84-5.3-4.89-5.3a5.326,5.326,0,0,0-4.31,2.34v-2.02h-5.05v14.41Zm30.02,0.32c3.51,0,5.88-1.65,5.88-4.82v-0.05c0-2.8-2.26-3.79-5.11-4.59-1.49-.45-2.34-0.72-2.34-1.28v-0.05c0-.43.4-0.72,1.17-0.72a9.482,9.482,0,0,1,4.26,1.36l1.72-3.2a11.232,11.232,0,0,0-5.92-1.68c-3.33,0-5.77,1.71-5.77,4.77v0.06c0,2.88,2.26,3.83,5.1,4.58,1.52,0.43,2.34.67,2.34,1.25v0.06c0,0.5-.42.77-1.3,0.77a9.274,9.274,0,0,1-4.92-1.65l-1.89,3.03A11.47,11.47,0,0,0,1128.74,1710.76Zm12.09,0a5.52,5.52,0,0,0,4.26-1.84v1.52h4.97v-8.28a6.05,6.05,0,0,0-1.55-4.59c-1.14-1.14-2.89-1.76-5.47-1.76a14.515,14.515,0,0,0-5.82,1.12l1.04,3.55a10.822,10.822,0,0,1,3.98-.8c1.94,0,2.87.85,2.87,2.37v0.24a10.222,10.222,0,0,0-3.45-.56c-3.38,0-5.64,1.52-5.64,4.53v0.05C1136.02,1709.16,1138.1,1710.76,1140.83,1710.76Zm1.81-3.17a1.58,1.58,0,0,1-1.78-1.57v-0.05c0-1.1.85-1.79,2.31-1.79a5.66,5.66,0,0,1,2,.37v0.67A2.323,2.323,0,0,1,1142.64,1707.59Zm10.96,2.85h5.02v-19.45h-5.02v19.45Zm15.59,0.35a7.493,7.493,0,0,0,6.22-2.93l-2.79-2.32a4.317,4.317,0,0,1-3.19,1.47,2.969,2.969,0,0,1-3.11-2.38h9.62c0.03-.34.03-0.72,0.03-1.04,0-4.23-2.29-7.88-7.23-7.88a7.227,7.227,0,0,0-7.26,7.54v0.05C1161.48,1707.75,1164.67,1710.79,1169.19,1710.79Zm-2.95-8.74c0.27-1.6,1.17-2.61,2.5-2.61a2.585,2.585,0,0,1,2.52,2.61h-5.02Z" transform="translate(-980 -1170)"/>
</svg>
