<?xml version="1.0" encoding="UTF-8"?>
<svg id="_230927_47-M6053_TYE30OffPurchase_NON-CARD_Hero_HP_US_SM_svg.svg" data-name="230927_47-M6053_TYE30OffPurchase_NON-CARD_Hero_HP_US_SM_svg.svg" xmlns="http://www.w3.org/2000/svg" width="720" height="925" viewBox="0 0 720 925">
  <defs>
    <style>
      .cls-1 {
        fill: #fff;
        opacity: 0;
      }

      .cls-2 {
        fill: #d4ee40;
      }

      .cls-2, .cls-3 {
        fill-rule: evenodd;
      }
    </style>
  </defs>
  <rect id="box" class="cls-1" width="720" height="925"/>
  <path id="Rectangle_1997_copy_6" data-name="Rectangle 1997 copy 6" class="cls-2" d="M1520.78,1365.76l655.92-23.07v41.55l-655.92,23.07v-41.55Z" transform="translate(-1489 -491)"/>
  <path id="FALL_LOOKS_GOOD_copy" data-name="FALL LOOKS *GOOD* copy" class="cls-3" d="M1545.11,1392.75h7.86v-13.86H1570v-7.16h-17.03v-7.61h19.33v-7.16h-27.19v35.79Zm33.47,0h8.01l3.27-8.03h15.1l3.26,8.03h8.21l-15.3-36.05h-7.24Zm14.08-14.98,4.75-11.61,4.74,11.61h-9.49Zm32.36,14.98h25.66v-7.16h-17.81v-28.63h-7.85v35.79Zm34.65,0h25.65v-7.16h-17.8v-28.63h-7.85v35.79Zm53.01,0h25.66v-7.16h-17.8v-28.63h-7.86v35.79Zm51.99,0.61c11.02,0,19.03-8.33,19.03-18.51v-0.1c0-10.17-7.91-18.41-18.92-18.41s-19.03,8.34-19.03,18.51v0.11C1745.75,1385.13,1753.66,1393.36,1764.67,1393.36Zm0.11-7.26c-6.33,0-10.82-5.11-10.82-11.25v-0.1c0-6.13,4.39-11.15,10.71-11.15s10.82,5.12,10.82,11.25v0.11C1775.49,1381.09,1771.1,1386.1,1764.78,1386.1Zm46.33,7.26c11.02,0,19.03-8.33,19.03-18.51v-0.1c0-10.17-7.91-18.41-18.93-18.41s-19.03,8.34-19.03,18.51v0.11C1792.18,1385.13,1800.09,1393.36,1811.11,1393.36Zm0.1-7.26c-6.33,0-10.81-5.11-10.81-11.25v-0.1c0-6.13,4.38-11.15,10.71-11.15s10.81,5.12,10.81,11.25v0.11C1821.92,1381.09,1817.54,1386.1,1811.21,1386.1Zm28.99,6.65h7.85v-10.94l4.14-4.3,11.07,15.24h9.43l-15.2-20.61,14.54-15.18h-9.49l-14.49,15.64v-15.64h-7.85v35.79Zm53.01,0.51c7.7,0,13.11-3.99,13.11-11.09v-0.11c0-6.23-4.08-8.84-11.32-10.73-6.17-1.59-7.71-2.36-7.71-4.71v-0.1c0-1.74,1.59-3.12,4.6-3.12s6.12,1.33,9.28,3.53l4.08-5.93a20.6,20.6,0,0,0-13.26-4.55c-7.3,0-12.5,4.29-12.5,10.78v0.11c0,7.1,4.64,9.1,11.83,10.94,5.97,1.53,7.2,2.56,7.2,4.55v0.1c0,2.1-1.94,3.38-5.15,3.38-4.09,0-7.45-1.69-10.67-4.35l-4.64,5.58A22.712,22.712,0,0,0,1893.21,1393.26Zm45.98-19.53h4.18l-0.81-6.14,4.94,3.79,2.15-3.68-5.72-2.41,5.72-2.4-2.15-3.68-4.94,3.78,0.81-6.14h-4.18l0.82,6.14-4.95-3.78-2.14,3.68,5.71,2.4-5.71,2.41,2.14,3.68,4.95-3.79Zm37.6,19.63a23.173,23.173,0,0,0,15.26-5.67v-15.55h-15.51v6.8h7.9v5.12a12.5,12.5,0,0,1-7.39,2.15c-6.33,0-10.82-4.81-10.82-11.36v-0.1c0-6.08,4.54-11.15,10.26-11.15,4.13,0,6.58,1.33,9.33,3.63l4.95-5.98c-3.72-3.17-7.6-4.91-14.03-4.91a18.354,18.354,0,0,0-18.72,18.51v0.11C1958.02,1385.54,1965.67,1393.36,1976.79,1393.36Zm43.22,0c11.02,0,19.03-8.33,19.03-18.51v-0.1c0-10.17-7.91-18.41-18.93-18.41s-19.02,8.34-19.02,18.51v0.11C2001.09,1385.13,2008.99,1393.36,2020.01,1393.36Zm0.1-7.26c-6.32,0-10.81-5.11-10.81-11.25v-0.1c0-6.13,4.39-11.15,10.71-11.15s10.82,5.12,10.82,11.25v0.11C2030.83,1381.09,2026.44,1386.1,2020.11,1386.1Zm46.34,7.26c11.02,0,19.02-8.33,19.02-18.51v-0.1c0-10.17-7.9-18.41-18.92-18.41s-19.03,8.34-19.03,18.51v0.11C2047.52,1385.13,2055.43,1393.36,2066.45,1393.36Zm0.1-7.26c-6.33,0-10.81-5.11-10.81-11.25v-0.1c0-6.13,4.38-11.15,10.71-11.15s10.81,5.12,10.81,11.25v0.11C2077.26,1381.09,2072.87,1386.1,2066.55,1386.1Zm28.99,6.65h13.92c11.23,0,18.98-7.82,18.98-17.9v-0.1c0-10.07-7.75-17.79-18.98-17.79h-13.92v35.79Zm13.92-28.69c6.43,0,10.77,4.45,10.77,10.79v0.11c0,6.34-4.34,10.68-10.77,10.68h-6.07v-21.58h6.07Zm33.63,9.67h4.19l-0.82-6.14,4.95,3.79,2.14-3.68-5.71-2.41,5.71-2.4-2.14-3.68-4.95,3.78,0.82-6.14h-4.19l0.82,6.14-4.95-3.78-2.14,3.68,5.71,2.4-5.71,2.41,2.14,3.68,4.95-3.79Z" transform="translate(-1489 -491)"/>
</svg>
