<?xml version="1.0" encoding="UTF-8"?>
<svg id="_230901_14-M5283_LaborDay_CatNav_Sale_HP_US_XL_svg.svg" data-name="230901_14-M5283_LaborDay_CatNav_Sale_HP_US_XL_svg.svg" xmlns="http://www.w3.org/2000/svg" width="460" height="575" viewBox="0 0 460 575">
  <defs>
    <style>
      .cls-1, .cls-3 {
        fill: #f16c68;
      }

      .cls-2 {
        fill: #f7efde;
      }

      .cls-2, .cls-3 {
        fill-rule: evenodd;
      }
    </style>
  </defs>
  <rect id="box" class="cls-1" width="460" height="575"/>
  <path id="up_to_60_off_storewide" data-name="up to 60% off  storewide" class="cls-2" d="M1040.93,2335.67a10.074,10.074,0,0,0,8.15-4.35v3.75h9.51v-27.05h-9.51v14.65c0,2.95-1.71,4.55-4.03,4.55s-3.87-1.6-3.87-4.55v-14.65h-9.56v17.65C1031.62,2331.82,1035.14,2335.67,1040.93,2335.67Zm23.97,7.4h9.56v-11.3a10.254,10.254,0,0,0,8.31,3.9c6.44,0,12.02-5.35,12.02-14.15v-0.1c0-8.65-5.58-14-12.07-14-4.08,0-6.39,1.95-8.26,4.2v-3.6h-9.56v35.05Zm14.95-15.35c-3.12,0-5.59-2.55-5.59-6.15v-0.1c0-3.6,2.47-6.15,5.59-6.15,3.07,0,5.58,2.55,5.58,6.15v0.1C1085.43,2325.22,1082.92,2327.72,1079.85,2327.72Zm45.23,7.9a13.7,13.7,0,0,0,6.64-1.6v-7.4a8.453,8.453,0,0,1-3.62.9c-1.76,0-2.62-.8-2.62-2.7v-9.2h6.34v-7.6h-6.34v-6.85h-9.51v6.85h-3.22v7.6h3.22v11.05C1115.97,2333.12,1119.34,2335.62,1125.08,2335.62Zm24.51,0.1c8.76,0,15.1-6.45,15.1-14.15v-0.1c0-7.7-6.29-14.05-15-14.05s-15.04,6.45-15.04,14.15v0.1C1134.65,2329.37,1140.94,2335.72,1149.59,2335.72Zm0.1-8.05a5.875,5.875,0,0,1-5.78-6.1v-0.1c0-3.3,2.21-6.05,5.68-6.05a5.937,5.937,0,0,1,5.84,6.15v0.1A5.72,5.72,0,0,1,1149.69,2327.67Zm49.96,8.1c7.7,0,13.99-4.8,13.99-12.6v-0.1c0-7-5.43-10.9-11.62-10.9a11.767,11.767,0,0,0-7.6,2.7c0.25-2.8,1.56-7.5,6.64-7.5a11.14,11.14,0,0,1,7,2.65l4.58-6.8a18.278,18.278,0,0,0-11.73-3.85c-11.02,0-16.35,8.3-16.35,19.2v0.1c0,6.55,1.71,10.5,4.33,13.1C1191.45,2334.27,1194.67,2335.77,1199.65,2335.77Zm-0.4-7.55c-3.07,0-4.98-2-4.98-4.55v-0.1c0-2.55,1.81-4.45,4.88-4.45s5.03,1.95,5.03,4.5v0.1C1204.18,2326.27,1202.32,2328.22,1199.25,2328.22Zm35.94,7.55c10.06,0,16.35-8.3,16.35-18.2v-0.1c0-9.9-6.24-18.1-16.25-18.1s-16.35,8.3-16.35,18.2v0.1C1218.94,2327.57,1225.18,2335.77,1235.19,2335.77Zm0.1-8.6c-3.93,0-6.54-4-6.54-9.6v-0.1c0-5.6,2.56-9.55,6.44-9.55,3.92,0,6.54,4.05,6.54,9.65v0.1C1241.73,2323.22,1239.21,2327.17,1235.29,2327.17Zm29.36-8.8a9.017,9.017,0,0,0,9.11-9.35v-0.1c0-5.15-3.57-9.35-9.06-9.35s-9.1,4.25-9.1,9.4v0.1A8.962,8.962,0,0,0,1264.65,2318.37Zm0-13.35c1.72,0,2.97,1.7,2.97,3.95v0.1c0,2.2-1.2,3.85-2.92,3.85-1.66,0-2.96-1.7-2.96-3.9v-0.1C1261.74,2306.67,1262.89,2305.02,1264.65,2305.02Zm9.67,11.2-14.85,18.85h6.79l12.18-15.95,15-19.05h-6.8Zm13.88,19.35a9.059,9.059,0,0,0,9.11-9.4v-0.1c0-5.15-3.57-9.35-9.06-9.35-5.53,0-9.1,4.25-9.1,9.4v0.1C1279.15,2331.32,1282.77,2335.57,1288.2,2335.57Zm0.05-5.5c-1.66,0-2.97-1.7-2.97-3.9v-0.1c0-2.25,1.11-3.9,2.92-3.9,1.71,0,2.97,1.7,2.97,3.95v0.1C1291.17,2328.42,1289.96,2330.07,1288.25,2330.07Zm43.04,5.65c8.75,0,15.09-6.45,15.09-14.15v-0.1c0-7.7-6.29-14.05-14.99-14.05s-15.05,6.45-15.05,14.15v0.1C1316.34,2329.37,1322.63,2335.72,1331.29,2335.72Zm0.1-8.05a5.877,5.877,0,0,1-5.79-6.1v-0.1c0-3.3,2.21-6.05,5.69-6.05a5.929,5.929,0,0,1,5.83,6.15v0.1A5.718,5.718,0,0,1,1331.39,2327.67Zm20.8,7.4h9.56v-19.45h6.09v-7.3h-6.29v-0.65c0-1.75.96-2.55,2.72-2.55a11.152,11.152,0,0,1,3.57.55v-6.7a20.6,20.6,0,0,0-6.19-.75c-3.27,0-5.48.7-7.14,2.35-1.61,1.6-2.32,3.9-2.32,7v0.55h-3.17v7.5h3.17v19.45Zm20.33,0h9.56v-19.45h6.09v-7.3h-6.29v-0.65c0-1.75.96-2.55,2.72-2.55a11.152,11.152,0,0,1,3.57.55v-6.7a20.6,20.6,0,0,0-6.19-.75c-3.27,0-5.48.7-7.15,2.35-1.61,1.6-2.31,3.9-2.31,7v0.7h-3.17v7.35h3.17v19.45Zm-273.41,47.6c6.64,0,11.12-3.1,11.12-9.05v-0.1c0-5.25-4.28-7.1-9.66-8.6-2.82-.85-4.43-1.35-4.43-2.4v-0.1c0-.8.75-1.35,2.21-1.35a17.967,17.967,0,0,1,8.05,2.55l3.27-6a21.376,21.376,0,0,0-11.22-3.15c-6.29,0-10.92,3.2-10.92,8.95v0.1c0,5.4,4.28,7.2,9.66,8.6,2.87,0.8,4.43,1.25,4.43,2.35v0.1c0,0.95-.8,1.45-2.46,1.45a17.609,17.609,0,0,1-9.31-3.1l-3.57,5.7A21.824,21.824,0,0,0,1099.11,2382.67Zm26.61-.05a13.717,13.717,0,0,0,6.65-1.6v-7.4a8.461,8.461,0,0,1-3.63.9c-1.76,0-2.61-.8-2.61-2.7v-9.2h6.34v-7.6h-6.34v-6.85h-9.51v6.85h-3.22v7.6h3.22v11.05C1116.62,2380.12,1119.99,2382.62,1125.72,2382.62Zm24.52,0.1c8.75,0,15.09-6.45,15.09-14.15v-0.1c0-7.7-6.29-14.05-14.99-14.05s-15.04,6.45-15.04,14.15v0.1C1135.3,2376.37,1141.58,2382.72,1150.24,2382.72Zm0.1-8.05a5.884,5.884,0,0,1-5.79-6.1v-0.1c0-3.3,2.22-6.05,5.69-6.05a5.937,5.937,0,0,1,5.84,6.15v0.1A5.726,5.726,0,0,1,1150.34,2374.67Zm20.39,7.4h9.56v-8.45c0-6.2,2.82-9.05,7.8-9.05h0.8v-10c-4.53-.2-7.04,2.2-8.6,5.9v-5.45h-9.56v27.05Zm34.98,0.65a14.247,14.247,0,0,0,11.77-5.5l-5.28-4.35a8.149,8.149,0,0,1-6.04,2.75,5.6,5.6,0,0,1-5.88-4.45h18.21c0.05-.65.05-1.35,0.05-1.95,0-7.95-4.33-14.8-13.69-14.8-8.05,0-13.73,6.25-13.73,14.15v0.1C1191.12,2377.02,1197.16,2382.72,1205.71,2382.72Zm-5.59-16.4c0.51-3,2.22-4.9,4.73-4.9,2.62,0,4.43,1.9,4.78,4.9h-9.51Zm28.94,15.95h8.15l4.53-14.1,4.43,14.1h8.25l8.4-27.25h-9.2l-3.68,13.7-4.22-13.8h-7.85l-4.23,13.7-3.57-13.6h-9.31Zm38.38-29.7h9.92v-7h-9.92v7Zm0.21,29.5h9.51v-27.05h-9.51v27.05Zm27.09,0.6c4.07,0,6.39-1.95,8.25-4.2v3.6h9.56v-36.5h-9.56v12.75a10.247,10.247,0,0,0-8.3-3.9c-6.44,0-12.03,5.35-12.03,14.15v0.1C1282.66,2377.32,1288.25,2382.67,1294.74,2382.67Zm2.86-7.95c-3.06,0-5.58-2.55-5.58-6.15v-0.1c0-3.6,2.52-6.15,5.58-6.15,3.12,0,5.59,2.6,5.59,6.15v0.1C1303.19,2372.17,1300.72,2374.72,1297.6,2374.72Zm33.98,8a14.247,14.247,0,0,0,11.77-5.5l-5.28-4.35a8.149,8.149,0,0,1-6.04,2.75,5.6,5.6,0,0,1-5.88-4.45h18.21c0.05-.65.05-1.35,0.05-1.95,0-7.95-4.33-14.8-13.69-14.8-8.05,0-13.73,6.25-13.73,14.15v0.1C1316.99,2377.02,1323.03,2382.72,1331.58,2382.72Zm-5.59-16.4c0.51-3,2.22-4.9,4.73-4.9,2.62,0,4.43,1.9,4.78,4.9h-9.51Z" transform="translate(-980 -1870)"/>
  <path id="_3" data-name="3" class="cls-2" d="M980,2155.4l460-5.23v89.6l-460,5.22V2155.4Z" transform="translate(-980 -1870)"/>
  <path id="US" class="cls-3" d="M1151.9,2264.73c31.5-.66,51.93-15.59,51.93-48.22v-56.26l-31.03.65v57.13c0,14.21-8.08,21.05-20.59,21.32-12.34.26-20.42-6.53-20.42-21.18v-56.41l-31.03.66v56.98C1100.76,2251.16,1120.55,2265.39,1151.9,2264.73Zm121.58-2.7c26.91-.57,44.8-13.27,44.8-34v-0.29c0-19-15.83-26.2-41.16-30.75-15.51-2.86-19.31-4.81-19.31-9.45v-0.29c0-3.77,3.64-6.6,11.08-6.76,9.81-.21,20.9,2.9,31.03,9.35l15.35-20.19c-12.03-8.59-26.75-12.92-45.59-12.52-26.6.56-42.9,14.53-42.9,33.38v0.29c0,20.74,18.2,26.44,41.79,30.88,15.2,3.01,18.84,5.11,18.84,9.46v0.29c0,4.35-4.43,7.06-12.82,7.23-12.83.27-24.86-3.68-35.94-11.42l-17.1,19.06C1235.33,2257.18,1253.85,2262.44,1273.48,2262.03Z" transform="translate(-980 -1870)"/>
  <path id="H" class="cls-3" d="M1440,2155.29v101.5l-28.79.61v-38.57l-39.42.82v38.57l-30.71.65v-101.5l30.71-.65v37.99l39.42-.83v-37.99Z" transform="translate(-980 -1870)"/>
  <path id="R" class="cls-3" d="M1046.94,2265.05l-22.32-30.27-13.62.28v30.74l-30.711.65v-101.5l52.4-1.1c16.94-.36,28.66,3.45,36.1,10.11,6.49,5.81,9.81,13.43,9.81,23.43v0.29c0,15.66-9.02,26.15-22.79,31.8l26.43,34.83Zm0.95-65.13c0-8.12-6.49-12.04-16.62-11.83l-20.27.43v24.5l20.42-.43c10.3-.21,16.47-4.98,16.47-12.38v-0.29Z" transform="translate(-980 -1870)"/>
  <path id="_2" data-name="2" class="cls-2" d="M980,2046.4l460-5.23v89.6l-460,5.22V2046.4Z" transform="translate(-980 -1870)"/>
  <path id="EA" class="cls-3" d="M1108.95,2128.66l89.93-1.89v-23.92l-59.53,1.25V2088l53.19-1.11V2064.7l-53.19,1.12V2050.3l58.73-1.23v-23.78l-89.13,1.87v101.5Zm104.96-2.2,32.14-.68,7.92-18.43,42.9-.91,7.91,18.11,32.93-.69-47.17-101.24-29.61.62Zm49.08-41.2,12.51-28.97,12.34,28.45Z" transform="translate(-980 -1870)"/>
  <path id="L" class="cls-3" d="M1440,2121.71l-83.61,1.75v-101.5l30.71-.64v76.85l52.9-1.11v24.65Z" transform="translate(-980 -1870)"/>
  <path id="D" class="cls-3" d="M1022.04,2130.49l-42.04.88v-101.5l42.68-.9c39.42-.83,62.37,19.57,62.37,48.86v0.29C1085.05,2107.41,1061.78,2129.65,1022.04,2130.49Zm31.66-51.56c0-16.24-12.19-25.56-30.71-25.17l-12.5.26v51.77l12.5-.26c18.52-.39,30.71-9.93,30.71-26.31v-0.29Z" transform="translate(-980 -1870)"/>
  <path id="_1" data-name="1" class="cls-2" d="M980,1936.4l460-5.23v89.6l-460,5.22V1936.4Z" transform="translate(-980 -1870)"/>
  <path id="FALL" class="cls-3" d="M1005.85,2020.83l29.74-.63v-35.1l50.74-1.06v-22.61l-50.74,1.07v-16.71l56.1-1.18v-23.87l-85.84,1.81v98.28Zm86.46-1.82,31.12-.65,7.66-17.85,41.54-.88,7.67,17.53,31.88-.67-45.68-98.02-28.66.6Zm47.52-39.89,12.11-28.05,11.96,27.55Zm90.45,36.99,81.7-1.71v-23.87l-51.96,1.09v-74.41l-29.74.62v98.28Zm102.25-2.14,81.7-1.72v-23.87l-51.96,1.09v-74.41l-29.74.62v98.29Z" transform="translate(-980 -1870)"/>
</svg>
