<?xml version="1.0" encoding="UTF-8"?>
<svg id="_230927_47-M6053_TYE30OffPurchase_NON-CARD_Hero_HP_US_XL_svg.svg" data-name="230927_47-M6053_TYE30OffPurchase_NON-CARD_Hero_HP_US_XL_svg.svg" xmlns="http://www.w3.org/2000/svg" width="1440" height="720" viewBox="0 0 1440 720">
  <defs>
    <style>
      .cls-1 {
        fill: #fff;
        opacity: 0;
      }

      .cls-2 {
        fill: #d4ee40;
      }

      .cls-2, .cls-3 {
        fill-rule: evenodd;
      }
    </style>
  </defs>
  <rect id="box" class="cls-1" width="1440" height="720"/>
  <path id="Rectangle_1997_copy" data-name="Rectangle 1997 copy" class="cls-2" d="M391.782,862.761L1047.7,839.693v41.546L391.782,904.307V862.761Z" transform="translate(0 -193)"/>
  <path id="FALL_LOOKS_GOOD_" data-name="FALL LOOKS *GOOD*" class="cls-3" d="M416.11,889.751h7.856V875.894H441v-7.159H423.966v-7.619H443.3v-7.159H416.11v35.794Zm33.475,0h8.008l3.265-8.028h15.1l3.265,8.028h8.213l-15.3-36.05h-7.244Zm14.079-14.982,4.744-11.608,4.744,11.608h-9.488Zm32.354,14.982h25.659v-7.159h-17.8V853.957h-7.856v35.794Zm34.647,0h25.659v-7.159h-17.8V853.957h-7.856v35.794Zm53.018,0h25.658v-7.159h-17.8V853.957h-7.855v35.794Zm51.991,0.614c11.018,0,19.027-8.335,19.027-18.511v-0.1c0-10.176-7.907-18.409-18.925-18.409s-19.028,8.335-19.028,18.511v0.1C616.748,882.132,624.655,890.365,635.674,890.365Zm0.1-7.261c-6.326,0-10.815-5.114-10.815-11.25v-0.1c0-6.136,4.387-11.148,10.713-11.148s10.814,5.114,10.814,11.25v0.1C646.488,878.092,642.1,883.1,635.776,883.1Zm46.332,7.261c11.019,0,19.028-8.335,19.028-18.511v-0.1c0-10.176-7.907-18.409-18.926-18.409s-19.027,8.335-19.027,18.511v0.1C663.183,882.132,671.09,890.365,682.108,890.365Zm0.1-7.261c-6.325,0-10.814-5.114-10.814-11.25v-0.1c0-6.136,4.387-11.148,10.712-11.148s10.815,5.114,10.815,11.25v0.1C692.923,878.092,688.536,883.1,682.21,883.1Zm28.989,6.647h7.856V878.808l4.132-4.295,11.069,15.238h9.437l-15.2-20.607,14.538-15.187h-9.488L719.055,869.6V853.957H711.2v35.794Zm53.013,0.511c7.7,0,13.11-3.988,13.11-11.1v-0.1c0-6.239-4.081-8.846-11.324-10.738-6.173-1.585-7.7-2.353-7.7-4.705v-0.1c0-1.739,1.581-3.119,4.591-3.119s6.121,1.329,9.284,3.528L776.251,858a20.638,20.638,0,0,0-13.263-4.551c-7.3,0-12.5,4.295-12.5,10.789v0.1c0,7.108,4.642,9.1,11.835,10.943,5.968,1.534,7.192,2.557,7.192,4.551v0.1c0,2.1-1.938,3.375-5.152,3.375-4.081,0-7.447-1.687-10.661-4.346l-4.642,5.573A22.691,22.691,0,0,0,764.212,890.262Zm45.978-19.533h4.183l-0.816-6.136,4.948,3.784,2.142-3.682-5.713-2.4,5.713-2.4-2.142-3.681-4.948,3.784,0.816-6.136H810.19l0.816,6.136-4.948-3.784-2.143,3.681,5.714,2.4-5.714,2.4,2.143,3.682,4.948-3.784Zm37.6,19.636a23.144,23.144,0,0,0,15.252-5.676V869.144H847.538v6.8h7.907v5.113a12.513,12.513,0,0,1-7.4,2.148c-6.325,0-10.814-4.807-10.814-11.352v-0.1c0-6.085,4.54-11.148,10.253-11.148,4.132,0,6.58,1.33,9.335,3.631l4.948-5.983c-3.724-3.17-7.6-4.909-14.028-4.909a18.35,18.35,0,0,0-18.721,18.511v0.1C829.021,882.541,836.673,890.365,847.793,890.365Zm43.22,0c11.018,0,19.027-8.335,19.027-18.511v-0.1c0-10.176-7.907-18.409-18.925-18.409s-19.027,8.335-19.027,18.511v0.1C872.088,882.132,879.994,890.365,891.013,890.365Zm0.1-7.261c-6.326,0-10.815-5.114-10.815-11.25v-0.1c0-6.136,4.387-11.148,10.713-11.148s10.814,5.114,10.814,11.25v0.1C901.827,878.092,897.44,883.1,891.115,883.1Zm46.332,7.261c11.019,0,19.028-8.335,19.028-18.511v-0.1c0-10.176-7.907-18.409-18.926-18.409s-19.027,8.335-19.027,18.511v0.1C918.522,882.132,926.429,890.365,937.447,890.365Zm0.1-7.261c-6.325,0-10.814-5.114-10.814-11.25v-0.1c0-6.136,4.387-11.148,10.712-11.148s10.815,5.114,10.815,11.25v0.1C948.262,878.092,943.875,883.1,937.549,883.1Zm28.989,6.647h13.926c11.223,0,18.976-7.824,18.976-17.9v-0.1c0-10.074-7.753-17.795-18.976-17.795H966.538v35.794Zm13.926-28.686c6.428,0,10.764,4.448,10.764,10.789v0.1c0,6.341-4.336,10.687-10.764,10.687h-6.07V861.065h6.07Zm33.626,9.664h4.19l-0.82-6.136,4.95,3.784,2.14-3.682-5.71-2.4,5.71-2.4-2.14-3.681-4.95,3.784,0.82-6.136h-4.19l0.82,6.136-4.95-3.784-2.14,3.681,5.71,2.4-5.71,2.4,2.14,3.682,4.95-3.784Z" transform="translate(0 -193)"/>
</svg>
