<?xml version="1.0" encoding="UTF-8"?>
<svg id="_230901_14-M5283_LaborDay_CatNav_Pants_HP_US_XL_svg.svg" data-name="230901_14-M5283_LaborDay_CatNav_Pants_HP_US_XL_svg.svg" xmlns="http://www.w3.org/2000/svg" width="460" height="575" viewBox="0 0 460 575">
  <defs>
    <style>
      .cls-1 {
        fill: #e3e2e0;
        opacity: 0;
      }

      .cls-2 {
        fill: #f16c68;
      }

      .cls-3 {
        fill: #f7efde;
      }

      .cls-3, .cls-4, .cls-5 {
        fill-rule: evenodd;
      }

      .cls-5 {
        fill: #d4ee40;
      }
    </style>
  </defs>
  <rect id="Box" class="cls-1" width="460" height="575"/>
  <rect class="cls-2" y="485" width="460" height="90"/>
  <path id="_1X-" data-name="$ 1X-" class="cls-3" d="M747.023,2394.18a20.978,20.978,0,0,0-9.235-3.36v-2.62h-4.552v2.53c-6.653.48-10.461,4.02-10.461,9.13v0.09c0,5.46,3.633,7.87,10.636,9.48v5.29a21,21,0,0,1-8.141-3.63l-3.939,5.82a24.823,24.823,0,0,0,11.817,4.36v4.33H737.7v-4.28c6.216-.57,10.33-3.85,10.33-9.18v-0.09c0-5.41-3.545-7.86-10.461-9.43v-5.2a17.594,17.594,0,0,1,5.865,2.66Zm-6.565,18.44v0.09c0,1.27-.919,2.05-2.933,2.23v-4.81C739.8,2410.74,740.458,2411.44,740.458,2412.62Zm-9.98-13.33v-0.08c0-1.14.832-2.01,2.977-2.14v4.72C731.091,2401.13,730.478,2400.47,730.478,2399.29Zm20.529,36.6h56.579v-16.11H778.071l12.256-8.57c10.621-7.65,16.544-13.56,16.544-24.98v-0.2c0-13.46-10.723-22.74-26.349-22.74-13.787,0-21.447,5.4-29.106,15.29l13.378,11.12c5.618-6.43,9.4-9.28,14.2-9.28,4.9,0,8.068,2.75,8.068,7.34,0,4.28-2.655,7.65-9.293,12.85L751.007,2421v14.89Zm92.1,1.42c17.361,0,29.515-9.58,29.515-25.39v-0.2c0-15.5-11.643-22.63-24.511-22.63a25.271,25.271,0,0,0-11.438,2.54l0.612-10.8h32.171v-16.32h-47.8l-2.043,36.1,11.745,6.62a21.747,21.747,0,0,1,11.438-3.56c6.23,0,10.519,3.05,10.519,8.25v0.21c0,5.1-3.88,8.36-10.417,8.36-6.127,0-11.642-2.86-17.361-7.75L814.205,2426C821.661,2432.93,830.444,2437.31,843.108,2437.31Z" transform="translate(-490 -1870)"/>
  <path id="from" class="cls-4" d="M618.4,2435.51h1.981v-6.92h2.259v-1.64h-2.292v-0.47a1.077,1.077,0,0,1,1.146-1.3,3.5,3.5,0,0,1,1.163.21v-1.67a5.365,5.365,0,0,0-1.6-.22,2.608,2.608,0,0,0-1.948.68,2.916,2.916,0,0,0-.7,2.12v0.64h-1.1v1.65h1.1v6.92Zm6.689,0h1.982v-3.28c0-2.29,1.211-3.41,2.947-3.41h0.114v-2.09a3.053,3.053,0,0,0-3.061,2.1v-1.94h-1.982v8.62Zm11.242,0.19a4.513,4.513,0,0,0,4.633-4.49v-0.03a4.611,4.611,0,0,0-9.218.03v0.04A4.465,4.465,0,0,0,636.33,2435.7Zm0.033-1.73a2.657,2.657,0,0,1-2.637-2.76v-0.03a2.59,2.59,0,0,1,2.6-2.74,2.668,2.668,0,0,1,2.652,2.77v0.04A2.587,2.587,0,0,1,636.363,2433.97Zm7.088,1.54h1.981v-4.87a1.879,1.879,0,0,1,1.851-2.13c1.1,0,1.751.75,1.751,2.08v4.92h1.982v-4.87a1.856,1.856,0,0,1,1.85-2.13c1.113,0,1.752.73,1.752,2.1v4.9H656.6v-5.5c0-2.11-1.146-3.3-3.029-3.3a3.47,3.47,0,0,0-2.915,1.52,2.735,2.735,0,0,0-2.587-1.52,3.1,3.1,0,0,0-2.636,1.49v-1.31h-1.981v8.62Z" transform="translate(-490 -1870)"/>
  <path id="_pants" data-name=" pants" class="cls-4" d="M600.056,2386.56h5.049v-6.01a5.4,5.4,0,0,0,4.386,2.07c3.4,0,6.351-2.84,6.351-7.52v-0.05c0-4.6-2.95-7.44-6.378-7.44a5.267,5.267,0,0,0-4.359,2.23v-1.91h-5.049v18.63Zm7.893-8.16a3.047,3.047,0,0,1-2.95-3.27v-0.05a2.966,2.966,0,1,1,5.9,0v0.05A3.046,3.046,0,0,1,607.949,2378.4Zm15.023,4.22a5.534,5.534,0,0,0,4.252-1.83v1.52h4.97v-8.27a6,6,0,0,0-1.541-4.57c-1.143-1.15-2.9-1.76-5.475-1.76a14.342,14.342,0,0,0-5.82,1.12l1.036,3.53a11.054,11.054,0,0,1,3.987-.79c1.94,0,2.87.85,2.87,2.36v0.24a10.276,10.276,0,0,0-3.455-.56c-3.375,0-5.634,1.52-5.634,4.52v0.06C618.162,2381.03,620.235,2382.62,622.972,2382.62Zm1.807-3.16a1.582,1.582,0,0,1-1.78-1.57v-0.05c0-1.09.85-1.78,2.312-1.78a5.606,5.606,0,0,1,1.993.37v0.67A2.317,2.317,0,0,1,624.779,2379.46Zm10.827,2.85h5.049v-7.79c0-1.6.9-2.45,2.126-2.45s2.046,0.85,2.046,2.45v7.79h5.023v-9.41c0-3.27-1.833-5.29-4.89-5.29a5.322,5.322,0,0,0-4.305,2.34v-2.02h-5.049v14.38Zm22.466,0.29a7.249,7.249,0,0,0,3.508-.85v-3.94a4.324,4.324,0,0,1-1.913.48,1.218,1.218,0,0,1-1.382-1.43v-4.89h3.348v-4.04h-3.348v-3.65h-5.023v3.65h-1.7v4.04h1.7v5.87C653.262,2381.27,655.042,2382.6,658.072,2382.6Zm11.642,0.02c3.508,0,5.873-1.64,5.873-4.81v-0.05c0-2.79-2.259-3.77-5.1-4.57-1.488-.45-2.339-0.72-2.339-1.28v-0.05c0-.43.4-0.72,1.169-0.72a9.48,9.48,0,0,1,4.253,1.36l1.727-3.19a11.187,11.187,0,0,0-5.926-1.68c-3.322,0-5.767,1.7-5.767,4.76v0.05c0,2.87,2.259,3.83,5.1,4.58,1.515,0.42,2.339.66,2.339,1.25v0.05c0,0.5-.425.77-1.3,0.77a9.262,9.262,0,0,1-4.917-1.65l-1.887,3.03A11.45,11.45,0,0,0,669.714,2382.62Z" transform="translate(-490 -1870)"/>
  <path class="cls-5" d="M582.293,2397.63l109.834-5.76,0.785,14.98-109.834,5.76Z" transform="translate(-490 -1870)"/>
  <path id="_on_sale" data-name=" on sale" class="cls-4" d="M597.282,2410.65a7.659,7.659,0,0,0,7.973-7.52v-0.05a7.946,7.946,0,0,0-15.866.05v0.05A7.575,7.575,0,0,0,597.282,2410.65Zm0.053-4.28a3.117,3.117,0,0,1-3.056-3.24v-0.05a3.019,3.019,0,0,1,3-3.22,3.147,3.147,0,0,1,3.083,3.27v0.05A3.032,3.032,0,0,1,597.335,2406.37Zm10.387,3.94h5.049v-7.79c0-1.6.9-2.45,2.126-2.45s2.047,0.85,2.047,2.45v7.79h5.023v-9.41c0-3.27-1.834-5.29-4.89-5.29a5.323,5.323,0,0,0-4.306,2.34v-2.02h-5.049v14.38Zm30.02,0.31c3.508,0,5.873-1.64,5.873-4.81v-0.05c0-2.79-2.259-3.77-5.1-4.57-1.489-.45-2.339-0.72-2.339-1.28v-0.05c0-.43.4-0.72,1.169-0.72a9.472,9.472,0,0,1,4.252,1.36l1.728-3.19a11.188,11.188,0,0,0-5.927-1.68c-3.322,0-5.767,1.7-5.767,4.76v0.05c0,2.87,2.259,3.83,5.1,4.58,1.515,0.42,2.339.66,2.339,1.25v0.05c0,0.5-.426.77-1.3,0.77a9.262,9.262,0,0,1-4.916-1.65l-1.887,3.03A11.447,11.447,0,0,0,637.742,2410.62Zm12.092,0a5.536,5.536,0,0,0,4.252-1.83v1.52h4.969v-8.27a6,6,0,0,0-1.541-4.57c-1.143-1.15-2.9-1.76-5.475-1.76a14.345,14.345,0,0,0-5.82,1.12l1.037,3.53a11.044,11.044,0,0,1,3.986-.79c1.94,0,2.87.85,2.87,2.36v0.24a10.276,10.276,0,0,0-3.455-.56c-3.375,0-5.634,1.52-5.634,4.52v0.06C645.023,2409.03,647.1,2410.62,649.834,2410.62Zm1.807-3.16a1.582,1.582,0,0,1-1.781-1.57v-0.05c0-1.09.851-1.78,2.312-1.78a5.606,5.606,0,0,1,1.993.37v0.67A2.317,2.317,0,0,1,651.641,2407.46Zm10.959,2.85h5.023V2390.9H662.6v19.41Zm15.591,0.34a7.522,7.522,0,0,0,6.219-2.92l-2.79-2.32a4.307,4.307,0,0,1-3.189,1.47,2.971,2.971,0,0,1-3.11-2.37h9.621c0.026-.34.026-0.72,0.026-1.04,0-4.22-2.285-7.86-7.228-7.86a7.211,7.211,0,0,0-7.256,7.52v0.05C670.484,2407.62,673.674,2410.65,678.191,2410.65Zm-2.949-8.72c0.265-1.59,1.169-2.6,2.5-2.6a2.589,2.589,0,0,1,2.524,2.6h-5.022Z" transform="translate(-490 -1870)"/>
</svg>
