<?xml version="1.0" encoding="UTF-8"?><svg id="_230905_36_M5290_HERO_USCA_XL.svg" data-name="230905_36_M5290_HERO_USCA_XL.svg" xmlns="http://www.w3.org/2000/svg" width="1440" height="800" viewBox="0 0 1440 800">
  <defs>
    <style>
      .cls-1 {
        fill: none;
      }

      .cls-2 {
        fill: #d4ee40;
      }

      .cls-3 {
        fill-rule: evenodd;
      }
    </style>
  </defs>
  <rect class="cls-1" width="1440" height="800"/>
  <circle id="Ellipse_771_copy_3" data-name="Ellipse 771 copy 3" class="cls-2" cx="451.796" cy="656.311" r="114.984"/>
  <path id="_1X-" data-name="$ 1X-" class="cls-3" d="M424.668,922.5a21.094,21.094,0,0,0-9.235-3.365v-2.622h-4.552v2.534c-6.653.481-10.461,4.021-10.461,9.133v0.088c0,5.462,3.633,7.865,10.636,9.482v5.288a21.129,21.129,0,0,1-8.141-3.627l-3.94,5.811a24.81,24.81,0,0,0,11.818,4.37v4.326h4.552v-4.282c6.215-.568,10.33-3.845,10.33-9.177v-0.087c0-5.419-3.546-7.866-10.461-9.439v-5.2a17.709,17.709,0,0,1,5.865,2.666Zm-6.565,18.44v0.088c0,1.267-.92,2.053-2.933,2.228V938.45C417.446,939.062,418.1,939.761,418.1,940.941Zm-9.98-13.328v-0.087c0-1.136.832-2.01,2.976-2.141V930.1C408.736,929.449,408.123,928.793,408.123,927.613ZM457,965.632c15.626,0,28.392-9.789,28.392-25.695v-0.2c0-14.274-11.03-22.227-23.592-22.227a23.783,23.783,0,0,0-15.421,5.506c0.51-5.71,3.166-15.295,13.481-15.295,5.719,0,9.8,2.142,14.2,5.4l9.293-13.866a36.911,36.911,0,0,0-23.8-7.851c-22.366,0-33.191,16.925-33.191,39.153v0.2c0,13.357,3.472,21.412,8.783,26.714C440.351,962.573,446.887,965.632,457,965.632Zm-0.817-15.4c-6.23,0-10.111-4.079-10.111-9.279v-0.2c0-5.2,3.677-9.075,9.907-9.075s10.213,3.977,10.213,9.177v0.2C466.19,946.259,462.411,950.236,456.181,950.236Z" transform="translate(0 -242)"/>
  <path id="from" class="cls-3" d="M437.181,877.824h1.981v-6.919h2.26v-1.632h-2.293V868.8a1.083,1.083,0,0,1,1.147-1.3,3.48,3.48,0,0,1,1.162.212v-1.665a5.335,5.335,0,0,0-1.6-.228,2.624,2.624,0,0,0-1.949.685,2.909,2.909,0,0,0-.7,2.122v0.636h-1.1v1.648h1.1v6.919Zm6.69,0h1.981v-3.28c0-2.284,1.211-3.41,2.947-3.41h0.115v-2.089a3.065,3.065,0,0,0-3.062,2.105v-1.942h-1.981v8.616Zm11.241,0.2a4.513,4.513,0,0,0,4.634-4.487V873.5a4.611,4.611,0,0,0-9.218.033v0.032A4.463,4.463,0,0,0,455.112,878.02Zm0.033-1.73a2.659,2.659,0,0,1-2.636-2.757V873.5a2.59,2.59,0,0,1,2.6-2.742,2.668,2.668,0,0,1,2.653,2.775v0.032A2.589,2.589,0,0,1,455.145,876.29Zm7.089,1.534h1.981v-4.863a1.884,1.884,0,0,1,1.85-2.137c1.1,0,1.752.75,1.752,2.088v4.912H469.8v-4.863a1.859,1.859,0,0,1,1.85-2.137c1.113,0,1.752.734,1.752,2.105v4.895h1.981v-5.5c0-2.105-1.146-3.3-3.029-3.3a3.479,3.479,0,0,0-2.914,1.517,2.745,2.745,0,0,0-2.587-1.517,3.1,3.1,0,0,0-2.636,1.485v-1.306h-1.981v8.616Z" transform="translate(0 -242)"/>
  <path id="_styles" data-name=" styles" class="cls-3" d="M422.82,851.943c3.508,0,5.873-1.648,5.873-4.811v-0.053c0-2.791-2.259-3.775-5.1-4.572-1.488-.452-2.338-0.718-2.338-1.276v-0.053c0-.425.4-0.718,1.169-0.718a9.448,9.448,0,0,1,4.252,1.356l1.728-3.19a11.246,11.246,0,0,0-5.927-1.674c-3.322,0-5.767,1.7-5.767,4.758v0.053c0,2.87,2.259,3.827,5.1,4.571,1.515,0.426,2.338.665,2.338,1.25v0.053c0,0.505-.425.771-1.3,0.771a9.264,9.264,0,0,1-4.916-1.648l-1.887,3.03A11.483,11.483,0,0,0,422.82,851.943Zm13.686-.027a7.2,7.2,0,0,0,3.508-.85v-3.934a4.432,4.432,0,0,1-1.914.478,1.221,1.221,0,0,1-1.381-1.435v-4.891h3.348v-4.04h-3.348V833.6H431.7v3.641H430v4.04h1.7v5.874C431.7,850.587,433.476,851.916,436.506,851.916Zm13.024-6.007-2.87-8.665H441.4l5.634,14.114a1.33,1.33,0,0,1-1.2.585,4.992,4.992,0,0,1-2.206-.771l-1.541,3.535a8.92,8.92,0,0,0,4.6,1.249c2.87,0,4.226-1.3,5.475-4.678l5.262-14.034h-5.182Zm9.79,5.715h5.022v-19.4H459.32v19.4Zm15.591,0.345a7.514,7.514,0,0,0,6.219-2.923l-2.79-2.313a4.3,4.3,0,0,1-3.19,1.462,2.967,2.967,0,0,1-3.109-2.366h9.621c0.026-.345.026-0.717,0.026-1.036,0-4.226-2.285-7.868-7.228-7.868a7.213,7.213,0,0,0-7.256,7.522V844.5C467.2,848.939,470.393,851.969,474.911,851.969Zm-2.95-8.718c0.266-1.6,1.17-2.605,2.5-2.605a2.591,2.591,0,0,1,2.524,2.605h-5.023Zm18.268,8.692c3.508,0,5.873-1.648,5.873-4.811v-0.053c0-2.791-2.259-3.775-5.1-4.572-1.489-.452-2.339-0.718-2.339-1.276v-0.053c0-.425.4-0.718,1.169-0.718a9.448,9.448,0,0,1,4.252,1.356l1.728-3.19a11.246,11.246,0,0,0-5.927-1.674c-3.322,0-5.767,1.7-5.767,4.758v0.053c0,2.87,2.259,3.827,5.1,4.571,1.515,0.426,2.339.665,2.339,1.25v0.053c0,0.505-.426.771-1.3,0.771a9.267,9.267,0,0,1-4.916-1.648l-1.887,3.03A11.485,11.485,0,0,0,490.229,851.943Z" transform="translate(0 -242)"/>
</svg>
